<svg width="40" height="40" viewBox="0 0 40 40" fill="none" xmlns="http://www.w3.org/2000/svg">
<rect width="40" height="40" rx="6" fill="#BDBDBD"/>
<g clip-path="url(#clip0_4187_114295)">
<path d="M20.8583 11.5584L11.7 10.1668C11.275 10.1001 10.8417 10.2168 10.5167 10.4918C10.1917 10.7751 10 11.1834 10 11.6084V29.1668C10 29.6251 10.375 30.0001 10.8333 30.0001H13.5417V25.6251C13.5417 24.8168 14.1917 24.1668 15 24.1668H17.0833C17.8917 24.1668 18.5417 24.8168 18.5417 25.6251V30.0001H22.0833V13.0001C22.0833 12.2834 21.5667 11.6751 20.8583 11.5584ZM14.5833 22.2918H13.3333C12.9883 22.2918 12.7083 22.0118 12.7083 21.6668C12.7083 21.3218 12.9883 21.0418 13.3333 21.0418H14.5833C14.9283 21.0418 15.2083 21.3218 15.2083 21.6668C15.2083 22.0118 14.9283 22.2918 14.5833 22.2918ZM14.5833 19.7918H13.3333C12.9883 19.7918 12.7083 19.5118 12.7083 19.1668C12.7083 18.8218 12.9883 18.5418 13.3333 18.5418H14.5833C14.9283 18.5418 15.2083 18.8218 15.2083 19.1668C15.2083 19.5118 14.9283 19.7918 14.5833 19.7918ZM14.5833 17.2918H13.3333C12.9883 17.2918 12.7083 17.0118 12.7083 16.6668C12.7083 16.3218 12.9883 16.0418 13.3333 16.0418H14.5833C14.9283 16.0418 15.2083 16.3218 15.2083 16.6668C15.2083 17.0118 14.9283 17.2918 14.5833 17.2918ZM14.5833 14.7918H13.3333C12.9883 14.7918 12.7083 14.5118 12.7083 14.1668C12.7083 13.8218 12.9883 13.5418 13.3333 13.5418H14.5833C14.9283 13.5418 15.2083 13.8218 15.2083 14.1668C15.2083 14.5118 14.9283 14.7918 14.5833 14.7918ZM18.75 22.2918H17.5C17.155 22.2918 16.875 22.0118 16.875 21.6668C16.875 21.3218 17.155 21.0418 17.5 21.0418H18.75C19.095 21.0418 19.375 21.3218 19.375 21.6668C19.375 22.0118 19.095 22.2918 18.75 22.2918ZM18.75 19.7918H17.5C17.155 19.7918 16.875 19.5118 16.875 19.1668C16.875 18.8218 17.155 18.5418 17.5 18.5418H18.75C19.095 18.5418 19.375 18.8218 19.375 19.1668C19.375 19.5118 19.095 19.7918 18.75 19.7918ZM18.75 17.2918H17.5C17.155 17.2918 16.875 17.0118 16.875 16.6668C16.875 16.3218 17.155 16.0418 17.5 16.0418H18.75C19.095 16.0418 19.375 16.3218 19.375 16.6668C19.375 17.0118 19.095 17.2918 18.75 17.2918ZM18.75 14.7918H17.5C17.155 14.7918 16.875 14.5118 16.875 14.1668C16.875 13.8218 17.155 13.5418 17.5 13.5418H18.75C19.095 13.5418 19.375 13.8218 19.375 14.1668C19.375 14.5118 19.095 14.7918 18.75 14.7918Z" fill="white"/>
<path d="M28.85 19.0355L22.9166 17.793V30.0005H28.5416C29.3458 30.0005 30 29.3463 30 28.5421V20.4605C30 19.7721 29.5308 19.1863 28.85 19.0355ZM26.875 27.5005H25.625C25.28 27.5005 25 27.2205 25 26.8755C25 26.5305 25.28 26.2505 25.625 26.2505H26.875C27.22 26.2505 27.5 26.5305 27.5 26.8755C27.5 27.2205 27.22 27.5005 26.875 27.5005ZM26.875 25.0005H25.625C25.28 25.0005 25 24.7205 25 24.3755C25 24.0305 25.28 23.7505 25.625 23.7505H26.875C27.22 23.7505 27.5 24.0305 27.5 24.3755C27.5 24.7205 27.22 25.0005 26.875 25.0005ZM26.875 22.5005H25.625C25.28 22.5005 25 22.2205 25 21.8755C25 21.5305 25.28 21.2505 25.625 21.2505H26.875C27.22 21.2505 27.5 21.5305 27.5 21.8755C27.5 22.2205 27.22 22.5005 26.875 22.5005Z" fill="white"/>
</g>
<defs>
<clipPath id="clip0_4187_114295">
<rect width="20" height="20" fill="white" transform="translate(10 10)"/>
</clipPath>
</defs>
</svg>
