<svg width="88" height="56" viewBox="0 0 88 56" fill="none" xmlns="http://www.w3.org/2000/svg">
<g clip-path="url(#clip0_6640_86895)">
<path d="M5.74152 46.3281C6.27826 46.6358 6.7005 47.058 7.00823 47.5948C7.31596 48.1315 7.46983 48.7327 7.46983 49.3946C7.46983 50.0495 7.31596 50.647 7.00823 51.1838C6.7005 51.7205 6.27826 52.1428 5.74152 52.4505C5.20478 52.7582 4.60721 52.9085 3.95238 52.9085C3.28682 52.9085 2.68925 52.7546 2.14893 52.4505C1.61219 52.1428 1.18995 51.7205 0.882221 51.1838C0.57449 50.647 0.420624 50.0495 0.420624 49.3946C0.420624 48.7327 0.57449 48.1315 0.882221 47.5948C1.18995 47.058 1.61219 46.6358 2.14893 46.3281C2.68567 46.0203 3.28682 45.8665 3.95238 45.8665C4.60721 45.8665 5.20478 46.0203 5.74152 46.3281ZM2.54254 46.9435C2.12388 47.1904 1.7911 47.5304 1.54778 47.9597C1.30446 48.3891 1.1828 48.8686 1.1828 49.3946C1.1828 49.9242 1.30446 50.4037 1.54778 50.8295C1.7911 51.2589 2.12388 51.5953 2.54254 51.8386C2.9612 52.0819 3.43353 52.2036 3.95238 52.2036C4.47481 52.2036 4.94356 52.0819 5.36222 51.8386C5.78088 51.5953 6.11366 51.2589 6.34983 50.8295C6.58957 50.4001 6.70765 49.9206 6.70765 49.3946C6.70765 48.865 6.58957 48.3856 6.34983 47.9597C6.11008 47.5304 5.78088 47.194 5.36222 46.9435C4.94356 46.6966 4.47123 46.5714 3.95238 46.5714C3.42995 46.5714 2.9612 46.6966 2.54254 46.9435Z" fill="#373435"/>
<path d="M3.95197 53.0873C3.26136 53.0873 2.62443 52.9263 2.06264 52.6042C1.50085 52.2822 1.04998 51.8349 0.72794 51.2695C0.405895 50.7077 0.244873 50.0744 0.244873 49.3909C0.244873 48.7003 0.405895 48.0634 0.72794 47.5016C1.04998 46.9398 1.49727 46.489 2.05906 46.1669C2.62085 45.8449 3.25778 45.6838 3.94839 45.6838C4.63184 45.6838 5.26519 45.8449 5.82698 46.1669C6.38877 46.489 6.83963 46.9362 7.16168 47.5016C7.48372 48.0634 7.64475 48.7003 7.64475 49.3909C7.64475 50.0744 7.48372 50.7077 7.16168 51.2695C6.83963 51.8313 6.39235 52.2822 5.82698 52.6042C5.26877 52.9263 4.63542 53.0873 3.95197 53.0873ZM3.95197 46.0452C3.32219 46.0452 2.74609 46.192 2.23797 46.4818C1.72986 46.7716 1.32909 47.176 1.03925 47.6805C0.74941 48.1886 0.602701 48.7647 0.602701 49.3945C0.602701 50.0135 0.74941 50.5861 1.03925 51.0942C1.32909 51.6023 1.72986 52.0031 2.23797 52.2929C2.74609 52.5828 3.32219 52.7295 3.95197 52.7295C4.57101 52.7295 5.14353 52.5828 5.65165 52.2929C6.15976 52.0031 6.56053 51.5987 6.85037 51.0942C7.14021 50.5861 7.28692 50.0135 7.28692 49.3945C7.28692 48.7647 7.14021 48.1886 6.85037 47.6805C6.56053 47.1724 6.15618 46.7716 5.65165 46.4818C5.14353 46.192 4.57101 46.0452 3.95197 46.0452ZM3.95197 52.3824C3.40091 52.3824 2.89637 52.25 2.45267 51.9923C2.00538 51.7347 1.65114 51.3733 1.38992 50.9189C1.13229 50.4644 0.999889 49.9527 0.999889 49.3945C0.999889 48.8363 1.13229 48.3246 1.38992 47.8702C1.64756 47.4157 2.00538 47.0543 2.44909 46.7895C2.8928 46.5247 3.40091 46.3923 3.95197 46.3923C4.50302 46.3923 5.00756 46.5247 5.45484 46.7895C5.90213 47.0543 6.25638 47.4157 6.51043 47.8702C6.76449 48.3246 6.89331 48.8363 6.89331 49.3945C6.89331 49.9527 6.76449 50.4644 6.51043 50.9189C6.25638 51.3733 5.90213 51.7347 5.45484 51.9959C5.00756 52.2535 4.50302 52.3824 3.95197 52.3824ZM3.95197 46.7502C3.46532 46.7502 3.02161 46.8682 2.63158 47.0973C2.24155 47.3263 1.92666 47.6483 1.70123 48.0455C1.4758 48.4427 1.35772 48.8971 1.35772 49.3945C1.35772 49.8919 1.47222 50.3428 1.70123 50.7435C1.92666 51.1407 2.24155 51.4592 2.63158 51.6846C3.02161 51.91 3.46532 52.0245 3.95197 52.0245C4.43861 52.0245 4.88232 51.91 5.27235 51.6846C5.66238 51.4592 5.97369 51.1407 6.19554 50.7435C6.4174 50.3428 6.5319 49.8919 6.5319 49.3945C6.5319 48.8971 6.4174 48.4463 6.19554 48.0455C5.97369 47.6483 5.66238 47.3298 5.27235 47.0973C4.88232 46.8682 4.43861 46.7502 3.95197 46.7502Z" fill="#373435"/>
<path d="M13.2367 46.357C13.2367 46.4 13.2331 46.4322 13.2224 46.4572C13.1973 46.5502 13.1579 46.6146 13.1043 46.654C13.0506 46.6934 12.9755 46.7113 12.8824 46.7113C12.8073 46.7113 12.7071 46.7041 12.5854 46.6862C12.4638 46.6683 12.36 46.6612 12.2777 46.6612C11.859 46.6612 11.4833 46.7506 11.1577 46.926C10.8285 47.1013 10.5744 47.3446 10.3884 47.6559C10.2023 47.9672 10.1128 48.3143 10.1128 48.7008V52.5331C10.1128 52.644 10.0806 52.7335 10.0126 52.8051C9.94466 52.8766 9.85162 52.9124 9.73712 52.9124C9.62619 52.9124 9.53673 52.8766 9.46517 52.8051C9.3936 52.7335 9.35782 52.644 9.35782 52.5331V46.3964C9.35782 46.2783 9.3936 46.1853 9.46517 46.1208C9.53673 46.0529 9.62619 46.0207 9.73712 46.0207C9.8552 46.0207 9.94823 46.0529 10.0126 46.1208C10.0806 46.1888 10.1128 46.2819 10.1128 46.3964V47.1764C10.3562 46.79 10.6675 46.4894 11.0468 46.2676C11.4261 46.0493 11.8376 45.9384 12.2813 45.9384C12.9182 45.9419 13.2367 46.0815 13.2367 46.357Z" fill="#373435"/>
<path d="M9.73402 53.0877C9.57658 53.0877 9.4406 53.034 9.33683 52.9266C9.23306 52.8229 9.17581 52.6833 9.17581 52.5295V46.3927C9.17581 46.2245 9.22949 46.0886 9.34041 45.9848C9.55869 45.7808 9.93798 45.7916 10.1384 45.9884C10.2421 46.0886 10.2922 46.2245 10.2922 46.3927V46.6468C10.4855 46.4357 10.7073 46.2567 10.9578 46.1136C11.3621 45.881 11.8058 45.7629 12.2818 45.7629C13.0368 45.7629 13.4196 45.9633 13.4196 46.3569C13.4196 46.4178 13.4125 46.4679 13.3982 46.5144C13.366 46.6396 13.3016 46.7398 13.2121 46.8006C13.0726 46.8973 12.908 46.9116 12.568 46.8615C12.4571 46.8472 12.3605 46.8364 12.2853 46.8364C11.8989 46.8364 11.5482 46.9187 11.2476 47.0797C10.9506 47.2408 10.7145 47.4626 10.5463 47.7453C10.3781 48.028 10.2958 48.3465 10.2958 48.7007V52.533C10.2958 52.6905 10.2457 52.8229 10.1455 52.9266C10.0418 53.034 9.9022 53.0877 9.73402 53.0877ZM9.73402 46.1959C9.66961 46.1959 9.6231 46.2138 9.58731 46.2496C9.56584 46.2711 9.53722 46.3068 9.53722 46.3963V52.533C9.53722 52.5939 9.55511 52.6404 9.59089 52.6762C9.63025 52.7155 9.67319 52.7298 9.73402 52.7298C9.82348 52.7298 9.85926 52.7012 9.88073 52.6797C9.9022 52.6547 9.93441 52.6153 9.93441 52.533V48.7007C9.93441 48.282 10.0346 47.8992 10.235 47.5628C10.4354 47.2265 10.718 46.9581 11.0723 46.7649C11.4265 46.5752 11.8309 46.4786 12.2782 46.4786C12.3676 46.4786 12.4786 46.4858 12.611 46.5072C12.8113 46.5358 12.9473 46.543 13.001 46.5072C13.0189 46.4965 13.0368 46.4607 13.0511 46.4142C13.0547 46.407 13.0582 46.3927 13.0582 46.3605C13.0582 46.2138 12.7684 46.1243 12.2782 46.1243C11.8667 46.1243 11.4802 46.2281 11.1331 46.4285C10.7825 46.6325 10.489 46.9151 10.2636 47.2765L9.93441 47.799V46.3999C9.93441 46.2961 9.89862 46.2603 9.88431 46.2496C9.87358 46.2317 9.83779 46.1959 9.73402 46.1959Z" fill="#373435"/>
<path d="M20.9366 43.0929C21.0046 43.1609 21.0368 43.2539 21.0368 43.3684V49.43V49.4551C21.0296 50.1027 20.8686 50.6896 20.5573 51.2192C20.246 51.7488 19.8237 52.1638 19.2906 52.4608C18.7574 52.7578 18.167 52.9081 17.5193 52.9081C16.8538 52.9081 16.2562 52.7542 15.7159 52.4501C15.1791 52.1424 14.7569 51.7201 14.4492 51.1834C14.1414 50.6466 13.9876 50.0455 13.9876 49.3799C13.9876 48.7251 14.1414 48.1275 14.4492 47.5908C14.7569 47.0541 15.1791 46.6318 15.7159 46.3241C16.2526 46.0164 16.8538 45.8625 17.5193 45.8625C18.1169 45.8625 18.6536 45.9913 19.1367 46.2454C19.6198 46.503 19.9991 46.8537 20.2782 47.2974V43.3649C20.2782 43.2468 20.314 43.1537 20.3855 43.0893C20.4571 43.0213 20.5466 42.9891 20.6575 42.9891C20.7756 42.9927 20.8686 43.0285 20.9366 43.0929ZM18.9328 51.8311C19.3514 51.5842 19.6842 51.2442 19.9204 50.8184C20.1601 50.389 20.2782 49.9095 20.2782 49.3835C20.2782 48.8539 20.1601 48.3744 19.9204 47.9486C19.6806 47.5192 19.3514 47.1829 18.9328 46.9395C18.5141 46.6962 18.0418 46.5746 17.5229 46.5746C17.0005 46.5746 16.5317 46.6962 16.1131 46.9395C15.6944 47.1829 15.3616 47.5192 15.1183 47.9486C14.875 48.378 14.7533 48.8575 14.7533 49.3835C14.7533 49.9131 14.875 50.3926 15.1183 50.8184C15.3616 51.2478 15.6944 51.5842 16.1131 51.8311C16.5317 52.078 17.0041 52.2032 17.5229 52.2032C18.0418 52.2032 18.5105 52.0815 18.9328 51.8311Z" fill="#373435"/>
<path d="M17.5203 53.0872C16.8297 53.0872 16.1927 52.9262 15.6309 52.6042C15.0691 52.2821 14.6183 51.8348 14.2962 51.2695C13.9742 50.7077 13.8132 50.0708 13.8132 49.3801C13.8132 48.6967 13.9742 48.0633 14.2962 47.5015C14.6183 46.9398 15.0656 46.4889 15.6274 46.1669C16.1891 45.8448 16.8261 45.6838 17.5167 45.6838C18.1393 45.6838 18.7118 45.8198 19.2199 46.0881C19.5599 46.267 19.8533 46.4961 20.0966 46.7644V43.3651C20.0966 43.1969 20.1503 43.0609 20.2612 42.9571C20.4795 42.7532 20.8588 42.7639 21.0592 42.9607C21.1594 43.0609 21.213 43.1969 21.213 43.3651V49.4267C21.2059 50.128 21.0341 50.7542 20.7085 51.3053C20.3829 51.8599 19.9356 52.3 19.3738 52.6113C18.8228 52.9298 18.1966 53.0872 17.5203 53.0872ZM17.5203 46.0452C16.8905 46.0452 16.3144 46.1919 15.8063 46.4817C15.2982 46.7716 14.8938 47.1759 14.6075 47.6805C14.3177 48.1886 14.171 48.7611 14.171 49.3801C14.171 50.0099 14.3177 50.586 14.6075 51.0941C14.8974 51.6022 15.3017 52.003 15.8063 52.2929C16.3144 52.5827 16.8905 52.7294 17.5203 52.7294C18.1321 52.7294 18.6975 52.5863 19.2021 52.3036C19.703 52.0209 20.1074 51.6273 20.4008 51.1263C20.6942 50.6254 20.8481 50.0636 20.8552 49.4517V43.3686C20.8552 43.2684 20.8194 43.2291 20.8087 43.2184C20.7944 43.2076 20.7586 43.1683 20.6584 43.1683C20.5761 43.1683 20.5332 43.1969 20.5117 43.2219C20.4902 43.2434 20.4616 43.2792 20.4616 43.3686V47.9274L20.1324 47.3978C19.8748 46.9827 19.5134 46.6499 19.0589 46.4102C18.6009 46.1669 18.0856 46.0452 17.5203 46.0452ZM17.5203 52.3823C16.9692 52.3823 16.4647 52.2499 16.0174 51.9851C15.5737 51.7239 15.2159 51.3589 14.9582 50.9045C14.7006 50.45 14.5682 49.9384 14.5682 49.3801C14.5682 48.8219 14.7006 48.3102 14.9582 47.8558C15.2159 47.4014 15.5737 47.04 16.021 46.7823C16.4647 46.5247 16.9728 46.3923 17.5203 46.3923C18.0713 46.3923 18.5759 46.5247 19.0196 46.7823C19.4668 47.04 19.8211 47.4049 20.0752 47.8594C20.3292 48.3138 20.458 48.8255 20.458 49.3837C20.458 49.9419 20.3292 50.4536 20.0752 50.9081C19.8211 51.3625 19.4668 51.7275 19.0196 51.9887C18.5759 52.2499 18.0713 52.3823 17.5203 52.3823ZM17.5203 46.7501C17.0336 46.7501 16.5899 46.8646 16.1999 47.09C15.8098 47.3155 15.495 47.6339 15.2695 48.0311C15.0441 48.4283 14.926 48.8828 14.926 49.3801C14.926 49.8739 15.0405 50.3284 15.2695 50.7292C15.495 51.1299 15.8098 51.4484 16.1999 51.6774C16.5899 51.9064 17.0336 52.0245 17.5203 52.0245C18.0069 52.0245 18.4506 51.9064 18.8406 51.6774C19.2307 51.4484 19.542 51.1299 19.7638 50.7292C19.9857 50.3284 20.1002 49.8739 20.1002 49.3801C20.1002 48.8828 19.9857 48.4319 19.7638 48.0311C19.542 47.6339 19.2307 47.3155 18.8406 47.09C18.4542 46.8646 18.0069 46.7501 17.5203 46.7501Z" fill="#373435"/>
<path d="M27.8111 46.3285C28.2941 46.6183 28.6698 47.0191 28.9382 47.5308C29.2066 48.0425 29.3426 48.6257 29.3426 49.2806C29.3426 49.3915 29.3103 49.4774 29.2424 49.5382C29.1744 49.6026 29.0849 49.6312 28.9776 49.6312H23.696C23.7211 50.1286 23.8499 50.5687 24.0861 50.9588C24.3222 51.3488 24.6371 51.6529 25.0307 51.8712C25.4243 52.0895 25.868 52.2004 26.3547 52.2004C26.6839 52.2004 27.0131 52.1432 27.3423 52.0287C27.6751 51.9142 27.9363 51.7674 28.1295 51.5814C28.2118 51.5134 28.3013 51.4812 28.3943 51.4812C28.4873 51.4812 28.5625 51.5062 28.6197 51.5563C28.7128 51.6315 28.7593 51.7209 28.7593 51.8211C28.7593 51.9034 28.7199 51.9857 28.6448 52.0609C28.3764 52.3042 28.0257 52.5046 27.5928 52.6656C27.1598 52.8266 26.7447 52.9053 26.3511 52.9053C25.6856 52.9053 25.0987 52.7551 24.5799 52.4581C24.0646 52.1611 23.6567 51.7424 23.3633 51.2092C23.0698 50.6761 22.9231 50.0749 22.9231 49.4022C22.9231 48.7223 23.0591 48.114 23.331 47.5809C23.603 47.0477 23.9859 46.6326 24.4761 46.332C24.9663 46.0351 25.5281 45.8848 26.1579 45.8848C26.7769 45.8919 27.328 46.0386 27.8111 46.3285ZM24.5083 47.2517C24.0574 47.6882 23.7926 48.2643 23.7068 48.9764H28.609C28.5518 48.2607 28.2977 47.6882 27.854 47.2517C27.4103 46.8151 26.8449 46.5968 26.165 46.5968C25.5102 46.5968 24.9556 46.8151 24.5083 47.2517Z" fill="#373435"/>
<path d="M26.3556 53.0878C25.665 53.0878 25.0388 52.9303 24.4949 52.6154C23.951 52.3041 23.5216 51.8604 23.2103 51.2986C22.9025 50.7404 22.7487 50.1035 22.7487 49.4057C22.7487 48.7008 22.8918 48.0603 23.178 47.5021C23.4643 46.9403 23.8722 46.4966 24.3911 46.1817C24.9099 45.8668 25.5075 45.7094 26.1659 45.7094C26.81 45.7094 27.3933 45.8632 27.9014 46.1709C28.4095 46.4787 28.8138 46.9045 29.0965 47.4448C29.3792 47.9816 29.5188 48.597 29.5188 49.2805C29.5188 49.4809 29.4329 49.6025 29.3613 49.6705C29.2611 49.7671 29.1287 49.8136 28.9749 49.8136H23.8901C23.9331 50.2037 24.0511 50.5579 24.2408 50.8728C24.4591 51.2342 24.7525 51.5205 25.1175 51.7209C25.7294 52.0608 26.5094 52.1288 27.2859 51.864C27.5901 51.7602 27.8334 51.6207 28.0087 51.4561C28.2628 51.2485 28.5562 51.2664 28.7387 51.4239C28.9033 51.5563 28.9391 51.7173 28.9391 51.8246C28.9391 51.957 28.8818 52.0823 28.7745 52.1896C28.4846 52.4544 28.1125 52.6691 27.6581 52.8373C27.2072 53.0055 26.7706 53.0878 26.3556 53.0878ZM26.1659 46.0708C25.5719 46.0708 25.0388 46.2139 24.5772 46.493C24.1156 46.7721 23.7542 47.1693 23.4965 47.6702C23.2389 48.1748 23.1065 48.7616 23.1065 49.4093C23.1065 50.0498 23.246 50.6259 23.5251 51.1304C23.8007 51.6314 24.1871 52.0286 24.6738 52.3113C25.1604 52.5904 25.7258 52.7335 26.3556 52.7335C26.7277 52.7335 27.1249 52.6584 27.5328 52.5045C27.9407 52.3542 28.2771 52.161 28.5276 51.9355C28.5812 51.8819 28.5812 51.8425 28.5812 51.8282C28.5812 51.796 28.5741 51.7531 28.5097 51.703C28.4739 51.6708 28.3594 51.635 28.2449 51.728C28.0445 51.9212 27.7582 52.0823 27.404 52.2039C26.5309 52.5009 25.6471 52.4222 24.9457 52.0322C24.5235 51.7996 24.1835 51.4704 23.9331 51.0553C23.6826 50.6402 23.543 50.1679 23.518 49.6419L23.5073 49.4522H28.9749C29.0572 49.4522 29.0965 49.4272 29.118 49.4057C29.1359 49.3878 29.1609 49.3556 29.1609 49.2769C29.1609 48.6543 29.0321 48.0925 28.778 47.6094C28.5276 47.1299 28.1697 46.7471 27.7189 46.4751C27.2644 46.2067 26.742 46.0708 26.1659 46.0708ZM28.8031 49.1588H23.5073L23.5323 48.9584C23.6218 48.207 23.908 47.5879 24.3839 47.1263C24.867 46.6576 25.4646 46.4214 26.1659 46.4214C26.8923 46.4214 27.5006 46.6576 27.9801 47.1263C28.456 47.5915 28.728 48.2106 28.7888 48.9656L28.8031 49.1588ZM23.9152 48.801H28.4095C28.3272 48.2213 28.0982 47.7454 27.7296 47.3804C27.3145 46.9725 26.8028 46.7757 26.1659 46.7757C25.554 46.7757 25.0531 46.9725 24.6344 47.3804C24.2587 47.7454 24.0189 48.2213 23.9152 48.801Z" fill="#373435"/>
<path d="M34.8604 46.357C34.8604 46.4 34.8569 46.4322 34.8461 46.4572C34.8211 46.5502 34.7817 46.6146 34.7281 46.654C34.6744 46.6934 34.5992 46.7113 34.5062 46.7113C34.4311 46.7113 34.3309 46.7041 34.2092 46.6862C34.0875 46.6683 33.9838 46.6612 33.9015 46.6612C33.4828 46.6612 33.1071 46.7506 32.7815 46.926C32.4523 47.1013 32.1982 47.3446 32.0121 47.6559C31.8261 47.9672 31.7366 48.3143 31.7366 48.7008V52.5331C31.7366 52.644 31.7044 52.7335 31.6364 52.8051C31.5684 52.8766 31.4754 52.9124 31.3609 52.9124C31.25 52.9124 31.1605 52.8766 31.0889 52.8051C31.0174 52.7335 30.9816 52.644 30.9816 52.5331V46.3964C30.9816 46.2783 31.0174 46.1853 31.0889 46.1208C31.1605 46.0529 31.25 46.0207 31.3609 46.0207C31.479 46.0207 31.572 46.0529 31.6364 46.1208C31.7044 46.1888 31.7366 46.2819 31.7366 46.3964V47.1764C31.9799 46.79 32.2912 46.4894 32.6705 46.2676C33.0498 46.0493 33.4613 45.9384 33.905 45.9384C34.5384 45.9419 34.8604 46.0815 34.8604 46.357Z" fill="#373435"/>
<path d="M31.3578 53.0877C31.2003 53.0877 31.0644 53.034 30.9606 52.9266C30.8568 52.8229 30.7996 52.6833 30.7996 52.5295V46.3927C30.7996 46.2245 30.8532 46.0886 30.9642 45.9848C31.1824 45.7808 31.5653 45.7916 31.7621 45.9884C31.8659 46.0921 31.916 46.2281 31.916 46.3927V46.6468C32.1092 46.4357 32.3311 46.2567 32.5815 46.1136C32.9859 45.881 33.4296 45.7629 33.9055 45.7629C34.6605 45.7629 35.0434 45.9633 35.0434 46.3569C35.0434 46.4178 35.0362 46.4679 35.0219 46.5144C34.9861 46.6396 34.9253 46.7398 34.8359 46.8006C34.6963 46.8973 34.5317 46.9116 34.1918 46.8615C34.0808 46.8472 33.9842 46.8364 33.9091 46.8364C33.5226 46.8364 33.172 46.9187 32.8714 47.0797C32.5744 47.2408 32.3382 47.4626 32.1736 47.7453C32.0054 48.028 31.9231 48.3465 31.9231 48.7007V52.533C31.9231 52.6869 31.873 52.8193 31.7729 52.9266C31.6941 53.0018 31.5653 53.0877 31.3578 53.0877ZM31.3578 46.1959C31.2934 46.1959 31.2468 46.2138 31.2075 46.2496C31.186 46.2711 31.1574 46.3068 31.1574 46.3963V52.533C31.1574 52.5939 31.1753 52.6404 31.2111 52.6762C31.2504 52.7155 31.2934 52.7298 31.3542 52.7298C31.4437 52.7298 31.4794 52.7012 31.5009 52.6797C31.5367 52.6404 31.5546 52.5939 31.5546 52.533V48.7007C31.5546 48.282 31.6548 47.8992 31.8552 47.5628C32.0555 47.2265 32.3382 46.9581 32.6925 46.7649C33.0467 46.5752 33.4511 46.4786 33.8983 46.4786C33.9878 46.4786 34.0987 46.4858 34.2311 46.5072C34.4279 46.5358 34.5675 46.543 34.6212 46.5072C34.6283 46.5036 34.6498 46.4822 34.6713 46.4106C34.6748 46.4034 34.6784 46.3891 34.6784 46.3569C34.6784 46.2102 34.3886 46.1208 33.8983 46.1208C33.4868 46.1208 33.1004 46.2245 32.7533 46.4249C32.4026 46.6289 32.1092 46.9116 31.8838 47.273L31.5546 47.7954V46.3963C31.5546 46.2925 31.5188 46.2567 31.5045 46.246C31.4973 46.2317 31.458 46.1959 31.3578 46.1959Z" fill="#373435"/>
<path d="M35.4441 51.8203C35.5656 51.9418 35.6264 52.092 35.6264 52.2672C35.6264 52.4423 35.5656 52.5961 35.4441 52.7212C35.3225 52.8463 35.1723 52.9107 34.9972 52.9107C34.8113 52.9107 34.6611 52.8499 34.5395 52.7284C34.418 52.6068 34.3572 52.4531 34.3572 52.2707C34.3572 52.0955 34.4216 51.9454 34.5467 51.8238C34.6718 51.7023 34.822 51.6415 35.0007 51.6415C35.1759 51.6379 35.3225 51.6987 35.4441 51.8203Z" fill="#373435"/>
<path d="M34.9968 53.0875C34.7642 53.0875 34.5674 53.0088 34.4099 52.8514C34.2525 52.6939 34.1738 52.4971 34.1738 52.2645C34.1738 52.0391 34.2561 51.8459 34.4171 51.6884C34.7391 51.3771 35.258 51.3807 35.5693 51.6884C35.7267 51.8459 35.8055 52.0391 35.8055 52.261C35.8055 52.4828 35.7267 52.6796 35.5729 52.8371C35.419 53.0052 35.2222 53.0875 34.9968 53.0875ZM34.9968 51.8173C34.868 51.8173 34.7606 51.8602 34.6676 51.9497C34.5745 52.0391 34.5352 52.1393 34.5352 52.2681C34.5352 52.4041 34.5781 52.515 34.664 52.6009C34.8357 52.7727 35.1327 52.787 35.3152 52.5973C35.4047 52.5043 35.4476 52.3969 35.4476 52.2681C35.4476 52.1393 35.4047 52.0355 35.3188 51.9461C35.2329 51.8602 35.1256 51.8173 34.9968 51.8173Z" fill="#373435"/>
<path d="M45.4886 47.0007C45.5387 47.058 45.5638 47.1295 45.5638 47.2154C45.5638 47.3335 45.4958 47.4301 45.3634 47.5053C45.2811 47.5375 45.2167 47.5554 45.1737 47.5554C45.0485 47.5554 44.9411 47.5017 44.8588 47.3908C44.4294 46.8433 43.8283 46.5713 43.059 46.5713C42.5473 46.5713 42.1393 46.6823 41.8352 46.9041C41.531 47.126 41.3808 47.4015 41.3808 47.7307C41.3808 48.067 41.5275 48.3354 41.8137 48.5358C42.1036 48.7362 42.5902 48.8901 43.2701 48.9902C44.1611 49.1155 44.8016 49.3552 45.1916 49.7023C45.5816 50.0494 45.7785 50.4716 45.7785 50.969C45.7785 51.3555 45.6532 51.6954 45.4063 51.9888C45.1594 52.2823 44.8302 52.5113 44.4187 52.6687C44.0072 52.8297 43.5563 52.9085 43.0697 52.9085C42.5831 52.9085 42.1071 52.8226 41.6455 52.6508C41.1839 52.4791 40.8011 52.2178 40.5005 51.8636C40.4432 51.7956 40.411 51.7205 40.411 51.6382C40.411 51.5201 40.4647 51.4235 40.5756 51.3483C40.6257 51.3054 40.6973 51.2839 40.7903 51.2839C40.9084 51.2839 41.005 51.3304 41.0802 51.4235C41.4988 51.9352 42.1751 52.1928 43.1091 52.1928C43.771 52.1928 44.2613 52.0747 44.5762 51.8385C44.891 51.6024 45.0485 51.3018 45.0485 50.9297C45.0485 50.2641 44.4044 49.8419 43.1198 49.6558C42.3039 49.5377 41.6885 49.3159 41.2734 48.9867C40.8583 48.6575 40.6508 48.2639 40.6508 47.8023C40.6508 47.1904 40.8762 46.7109 41.3235 46.3709C41.7744 46.031 42.3576 45.8593 43.0804 45.8593C44.1432 45.8664 44.9447 46.2457 45.4886 47.0007Z" fill="#373435"/>
<path d="M43.0705 53.0877C42.5624 53.0877 42.065 52.9982 41.5856 52.8193C41.0989 52.6368 40.6874 52.3542 40.3654 51.982C40.2795 51.8818 40.233 51.7673 40.233 51.6385C40.233 51.4632 40.3153 51.3093 40.4727 51.2019C40.5443 51.1411 40.6552 51.1089 40.7876 51.1089C40.9594 51.1089 41.1061 51.1805 41.217 51.3129C41.5999 51.778 42.2368 52.0178 43.1063 52.0178C43.7289 52.0178 44.187 51.9104 44.4661 51.6993C44.7344 51.4989 44.8668 51.2485 44.8668 50.9372C44.8668 50.3789 44.2693 50.0104 43.092 49.8422C42.2511 49.7205 41.5999 49.4844 41.1597 49.1373C40.7017 48.7759 40.4691 48.3286 40.4691 47.8133C40.4691 47.1442 40.7196 46.6146 41.2134 46.2389C41.6929 45.8775 42.3191 45.6914 43.0777 45.6914C44.1905 45.6914 45.0458 46.0958 45.6254 46.8937C45.7006 46.9832 45.7399 47.0941 45.7399 47.2193C45.7399 47.3481 45.6898 47.5271 45.4465 47.6666C45.3177 47.7203 45.2354 47.7418 45.171 47.7418C44.9885 47.7418 44.8311 47.6595 44.713 47.5092C44.3158 47.0046 43.7755 46.7613 43.0527 46.7613C42.5803 46.7613 42.2046 46.8615 41.9362 47.0619C41.6786 47.2515 41.5569 47.4734 41.5569 47.7418C41.5569 48.0173 41.675 48.2356 41.9148 48.4002C42.1796 48.5862 42.6447 48.7294 43.2924 48.8224C44.212 48.9512 44.8919 49.2053 45.307 49.5774C45.7364 49.9603 45.9511 50.429 45.9511 50.9765C45.9511 51.4059 45.8115 51.7852 45.536 52.1108C45.2712 52.4257 44.9134 52.6726 44.4732 52.8444C44.0546 53.0054 43.5787 53.0877 43.0705 53.0877ZM40.7912 51.4632C40.7447 51.4632 40.7089 51.4703 40.691 51.4846C40.6015 51.5455 40.5908 51.5956 40.5908 51.6385C40.5908 51.6779 40.6051 51.7136 40.6337 51.7458C40.9164 52.075 41.2778 52.3219 41.7072 52.483C42.5875 52.8122 43.5751 52.805 44.3516 52.5044C44.7344 52.3577 45.0422 52.143 45.2676 51.8747C45.4895 51.6099 45.5968 51.3165 45.5968 50.9694C45.5968 50.5221 45.425 50.1535 45.0708 49.835C44.7094 49.513 44.0939 49.2876 43.2423 49.1659C42.5266 49.0586 42.0257 48.9011 41.7108 48.6828C41.3709 48.4467 41.1991 48.1246 41.1991 47.731C41.1991 47.3446 41.3744 47.0189 41.7251 46.7613C42.0579 46.518 42.5052 46.3927 43.0527 46.3927C43.8792 46.3927 44.5341 46.6897 44.9957 47.2802C45.0601 47.366 45.1245 47.3768 45.171 47.3768C45.171 47.3768 45.2032 47.3768 45.2927 47.341C45.3821 47.2873 45.3821 47.2372 45.3821 47.2157C45.3821 47.1728 45.3714 47.1442 45.3499 47.1191L45.3392 47.1084C44.8239 46.3963 44.0832 46.0492 43.0777 46.0492C42.3978 46.0492 41.8432 46.2103 41.4281 46.5216C41.0238 46.8293 40.8234 47.2515 40.8234 47.8097C40.8234 48.2177 41.0059 48.5612 41.378 48.8546C41.768 49.1623 42.3585 49.3734 43.1385 49.4844C44.5197 49.6848 45.2211 50.1714 45.2211 50.9336C45.2211 51.3594 45.0386 51.7136 44.6772 51.9856C44.3265 52.2468 43.8112 52.3756 43.1027 52.3756C42.1187 52.3756 41.3888 52.0965 40.9343 51.5419C40.8985 51.4846 40.8556 51.4632 40.7912 51.4632Z" fill="#373435"/>
<path d="M52.4192 46.3282C52.956 46.6359 53.3782 47.0581 53.6859 47.5949C53.9937 48.1316 54.1475 48.7328 54.1475 49.3948C54.1475 50.0496 53.9937 50.6472 53.6859 51.1839C53.3782 51.7206 52.956 52.1429 52.4192 52.4506C51.8825 52.7583 51.2849 52.9086 50.6301 52.9086C49.9645 52.9086 49.3669 52.7548 48.8266 52.4506C48.2863 52.1465 47.8676 51.7206 47.5599 51.1839C47.2522 50.6472 47.1019 50.0496 47.1019 49.3948C47.1019 48.7328 47.2558 48.1316 47.5599 47.5949C47.8676 47.0581 48.2899 46.6359 48.8266 46.3282C49.3634 46.0204 49.9645 45.8666 50.6301 45.8666C51.2849 45.8666 51.8825 46.0204 52.4192 46.3282ZM49.2202 46.9436C48.8016 47.1905 48.4688 47.5305 48.2255 47.9599C47.9822 48.3893 47.8605 48.8687 47.8605 49.3948C47.8605 49.9243 47.9822 50.4038 48.2255 50.8296C48.4688 51.259 48.8016 51.5954 49.2202 51.8387C49.6389 52.082 50.1112 52.2037 50.6301 52.2037C51.1489 52.2037 51.6213 52.082 52.0399 51.8387C52.4586 51.5954 52.7878 51.259 53.0275 50.8296C53.2673 50.4003 53.3853 49.9208 53.3853 49.3948C53.3853 48.8652 53.2673 48.3857 53.0275 47.9599C52.7878 47.5305 52.4586 47.1941 52.0399 46.9436C51.6213 46.6967 51.1489 46.5715 50.6301 46.5715C50.1076 46.5715 49.6389 46.6967 49.2202 46.9436Z" fill="#373435"/>
<path d="M50.6307 53.0877C49.9401 53.0877 49.3032 52.9266 48.7414 52.6046C48.1796 52.2825 47.7287 51.8353 47.4067 51.2699C47.0846 50.7081 46.9236 50.0747 46.9236 49.3913C46.9236 48.7007 47.0846 48.0638 47.4067 47.502C47.7287 46.9402 48.176 46.4893 48.7414 46.1673C49.3032 45.8452 49.9401 45.6842 50.6307 45.6842C51.3142 45.6842 51.9475 45.8452 52.5093 46.1673C53.0711 46.4893 53.522 46.9366 53.844 47.502C54.166 48.0638 54.3271 48.7007 54.3271 49.3913C54.3271 50.0747 54.166 50.7081 53.844 51.2699C53.522 51.8353 53.0747 52.2825 52.5093 52.6046C51.9475 52.9266 51.3142 53.0877 50.6307 53.0877ZM50.6307 46.0456C50.0009 46.0456 49.4248 46.1923 48.9167 46.4822C48.4086 46.772 48.0078 47.1763 47.718 47.6809C47.4282 48.189 47.2814 48.7651 47.2814 49.3949C47.2814 50.0175 47.4282 50.5864 47.718 51.0946C48.0078 51.6027 48.4122 52.0034 48.9167 52.2933C49.4248 52.5831 50.0009 52.7298 50.6307 52.7298C51.2497 52.7298 51.8223 52.5831 52.3304 52.2933C52.8385 52.0034 53.2393 51.6027 53.5291 51.0946C53.819 50.5864 53.9657 50.0139 53.9657 49.3949C53.9657 48.7651 53.819 48.189 53.5291 47.6809C53.2393 47.1728 52.8349 46.7684 52.3304 46.4822C51.8223 46.1923 51.2497 46.0456 50.6307 46.0456ZM50.6307 52.3827C50.0797 52.3827 49.5751 52.2503 49.1314 51.9927C48.6841 51.7351 48.3299 51.3737 48.0687 50.9192C47.811 50.4648 47.6786 49.9531 47.6786 49.3949C47.6786 48.8367 47.811 48.325 48.0687 47.8705C48.3263 47.4161 48.6841 47.0547 49.1278 46.7899C49.5751 46.5251 50.0797 46.3927 50.6307 46.3927C51.1818 46.3927 51.6863 46.5251 52.1336 46.7899C52.5809 47.0547 52.9351 47.4161 53.1892 47.8705C53.4432 48.325 53.572 48.8367 53.572 49.3949C53.572 49.9531 53.4432 50.4648 53.1892 50.9192C52.9351 51.3737 52.5809 51.7351 52.1336 51.9963C51.6863 52.2539 51.1818 52.3827 50.6307 52.3827ZM50.6307 46.7505C50.1441 46.7505 49.7004 46.8686 49.3103 47.0976C48.9203 47.3266 48.6054 47.6487 48.38 48.0459C48.1545 48.4431 48.0365 48.8975 48.0365 49.3949C48.0365 49.8887 48.151 50.3431 48.38 50.7439C48.6054 51.1411 48.9203 51.4595 49.3103 51.685C49.7004 51.9104 50.1441 52.0249 50.6307 52.0249C51.1174 52.0249 51.5611 51.9104 51.9511 51.685C52.3411 51.4595 52.6524 51.1411 52.8743 50.7439C53.0961 50.3431 53.2106 49.8887 53.2106 49.3949C53.2106 48.8975 53.0961 48.4466 52.8743 48.0459C52.6524 47.6487 52.3411 47.3302 51.9511 47.0976C51.5611 46.8686 51.1174 46.7505 50.6307 46.7505Z" fill="#373435"/>
<path d="M63.5915 46.3143C64.0746 46.6041 64.4503 47.0049 64.7187 47.5166C64.9871 48.0283 65.123 48.6116 65.123 49.2664C65.123 49.3773 65.0908 49.4632 65.0228 49.524C64.9548 49.5884 64.869 49.6171 64.758 49.6171H59.4801C59.5051 50.1144 59.634 50.5546 59.8701 50.9446C60.1063 51.3346 60.4212 51.6388 60.8148 51.8571C61.2084 52.0753 61.6521 52.1863 62.1387 52.1863C62.4679 52.1863 62.7971 52.129 63.1263 52.0145C63.4591 51.9 63.7203 51.7533 63.9136 51.5672C63.9959 51.4992 64.0853 51.467 64.1784 51.467C64.2714 51.467 64.3465 51.4921 64.4038 51.5422C64.4968 51.6173 64.5433 51.7068 64.5433 51.807C64.5433 51.8893 64.504 51.9716 64.4288 52.0467C64.1605 52.29 63.8098 52.4904 63.3768 52.6514C62.9439 52.8125 62.5288 52.8912 62.1352 52.8912C61.4696 52.8912 60.8828 52.7409 60.3639 52.4439C59.8486 52.1469 59.4407 51.7282 59.1473 51.1951C58.8539 50.6619 58.7072 50.0608 58.7072 49.3881C58.7072 48.7082 58.8432 48.0999 59.1151 47.5667C59.3871 47.0335 59.7699 46.6185 60.2602 46.3179C60.7504 46.0209 61.3122 45.8706 61.9419 45.8706C62.561 45.8813 63.1085 46.0245 63.5915 46.3143ZM60.2924 47.2411C59.8415 47.6776 59.5767 48.2537 59.4908 48.9658H64.3931C64.3322 48.2502 64.0818 47.6776 63.638 47.2411C63.1943 46.8045 62.629 46.5863 61.9491 46.5863C61.2943 46.5863 60.7396 46.8045 60.2924 47.2411Z" fill="#373435"/>
<path d="M62.1382 53.0774C61.4476 53.0774 60.8214 52.9199 60.2775 52.605C59.7336 52.2937 59.3042 51.85 58.9929 51.2882C58.6852 50.73 58.5313 50.0931 58.5313 49.3953C58.5313 48.6904 58.6744 48.0499 58.9607 47.4917C59.247 46.9299 59.6549 46.4862 60.1737 46.1713C60.6926 45.8564 61.2866 45.699 61.9486 45.699C62.5927 45.699 63.1759 45.8528 63.684 46.1606C64.1921 46.4647 64.5965 46.8941 64.8792 47.4344C65.1619 47.9712 65.305 48.5902 65.305 49.2701C65.305 49.4275 65.2513 49.5635 65.1475 49.6601C65.0474 49.7567 64.915 49.8033 64.7611 49.8033H59.6764C59.7193 50.1933 59.8374 50.5475 60.027 50.8624C60.2453 51.2238 60.5387 51.5101 60.9037 51.7105C61.5156 52.0504 62.2992 52.122 63.0721 51.8536C63.3763 51.7498 63.6196 51.6103 63.795 51.4457C64.0526 51.2381 64.346 51.2596 64.5249 51.4135C64.6895 51.5495 64.7253 51.7069 64.7253 51.8142C64.7253 51.9466 64.6681 52.0719 64.5607 52.1792C64.2709 52.444 63.8987 52.6587 63.4443 52.8269C62.9898 52.9915 62.5497 53.0774 62.1382 53.0774ZM61.9486 46.0568C61.3546 46.0568 60.8214 46.1999 60.3598 46.479C59.8982 46.7581 59.5368 47.1553 59.2792 47.6563C59.0215 48.1608 58.8891 48.7477 58.8891 49.3953C58.8891 50.0323 59.0287 50.6119 59.3078 51.1165C59.5833 51.6174 59.9698 52.0146 60.4564 52.2937C60.9431 52.5728 61.5084 52.716 62.1382 52.716C62.5104 52.716 62.9075 52.6408 63.319 52.487C63.727 52.3367 64.0633 52.1434 64.3138 51.918C64.3675 51.8643 64.3675 51.825 64.3675 51.8107C64.3675 51.7785 64.3603 51.7391 64.2959 51.6854C64.2601 51.6568 64.1456 51.6174 64.0311 51.7105C63.8307 51.9037 63.5445 52.0647 63.1902 52.1864C62.3207 52.4834 61.4333 52.4047 60.7319 52.0146C60.3097 51.782 59.9698 51.4528 59.7193 51.0378C59.4688 50.6227 59.3293 50.1468 59.3042 49.6243L59.2935 49.4383H64.7611C64.8434 49.4383 64.8827 49.4132 64.9042 49.3918C64.9221 49.3739 64.9472 49.3417 64.9472 49.2629C64.9472 48.6403 64.8183 48.0785 64.5643 47.5955C64.3138 47.116 63.956 46.7331 63.5051 46.4611C63.0471 46.1964 62.5247 46.0568 61.9486 46.0568ZM64.5858 49.1449H59.2899L59.315 48.9445C59.4044 48.193 59.6907 47.574 60.1666 47.1124C60.6497 46.6436 61.2472 46.4075 61.9486 46.4075C62.675 46.4075 63.2833 46.6436 63.7627 47.1124C64.2387 47.5776 64.5106 48.1966 64.5714 48.9516L64.5858 49.1449ZM59.6978 48.787H64.1921C64.1098 48.2073 63.8808 47.7314 63.5087 47.3664C63.0936 46.9585 62.5819 46.7617 61.945 46.7617C61.3331 46.7617 60.8321 46.9585 60.4135 47.3664C60.0413 47.735 59.798 48.2109 59.6978 48.787Z" fill="#373435"/>
<path d="M71.4472 46.3288C71.9839 46.6365 72.4062 47.0588 72.7139 47.5955C73.0216 48.1322 73.1755 48.7334 73.1755 49.3954V52.4584C73.1755 52.5693 73.1433 52.6588 73.0753 52.7303C73.0073 52.8019 72.9143 52.8377 72.7998 52.8377C72.6889 52.8377 72.5994 52.8019 72.5278 52.7303C72.4563 52.6588 72.4205 52.5693 72.4205 52.4584V51.4743C72.145 51.9181 71.7621 52.2687 71.279 52.5264C70.7959 52.784 70.2556 52.9092 69.6616 52.9092C68.9961 52.9092 68.3985 52.7554 67.8582 52.4512C67.3214 52.1435 66.8992 51.7212 66.5915 51.1845C66.2837 50.6478 66.1335 50.0502 66.1335 49.3954C66.1335 48.7334 66.2873 48.1322 66.5915 47.5955C66.8992 47.0588 67.3214 46.6365 67.8582 46.3288C68.3949 46.0211 68.9961 45.8672 69.6616 45.8672C70.3129 45.8672 70.9105 46.0211 71.4472 46.3288ZM71.0679 51.8393C71.4866 51.596 71.8158 51.2597 72.0555 50.8303C72.2952 50.4009 72.4133 49.9214 72.4133 49.3954C72.4133 48.8658 72.2952 48.3863 72.0555 47.9605C71.8158 47.5311 71.4866 47.1947 71.0679 46.9443C70.6492 46.6974 70.1769 46.5721 69.6581 46.5721C69.1356 46.5721 68.6669 46.6974 68.2482 46.9443C67.8296 47.1912 67.4968 47.5311 67.2535 47.9605C67.0101 48.3899 66.8885 48.8694 66.8885 49.3954C66.8885 49.925 67.0101 50.4044 67.2535 50.8303C67.4968 51.2597 67.8296 51.596 68.2482 51.8393C68.6669 52.0827 69.1392 52.2043 69.6581 52.2043C70.1769 52.2043 70.6492 52.0827 71.0679 51.8393Z" fill="#373435"/>
<path d="M69.6584 53.0883C68.9677 53.0883 68.3308 52.9272 67.769 52.6052C67.2072 52.2832 66.7564 51.8359 66.4343 51.2705C66.1123 50.7087 65.9513 50.0754 65.9513 49.3919C65.9513 48.7013 66.1123 48.0644 66.4343 47.5026C66.7564 46.9372 67.2037 46.4899 67.769 46.1679C68.3308 45.8458 68.9677 45.6848 69.6584 45.6848C70.3418 45.6848 70.9752 45.8458 71.537 46.1679C72.0987 46.4899 72.5496 46.9372 72.8716 47.5026C73.1937 48.0644 73.3547 48.7013 73.3547 49.3919V52.4549C73.3547 52.6124 73.3046 52.7448 73.2044 52.8485C73.0076 53.0596 72.6176 53.0704 72.3993 52.8521C72.2955 52.7483 72.2383 52.6088 72.2383 52.4549V52.004C71.995 52.276 71.7015 52.5014 71.3616 52.6803C70.8535 52.9523 70.281 53.0883 69.6584 53.0883ZM69.6584 46.0462C69.0286 46.0462 68.4525 46.1929 67.9444 46.4828C67.4362 46.7726 67.0355 47.1734 66.7456 47.6815C66.4558 48.1896 66.3091 48.7657 66.3091 49.3955C66.3091 50.0145 66.4558 50.587 66.7456 51.0952C67.0355 51.6033 67.4398 52.004 67.9444 52.2939C68.4525 52.5837 69.0286 52.7304 69.6584 52.7304C70.2237 52.7304 70.739 52.6088 71.1934 52.3655C71.6479 52.1257 72.0057 51.7929 72.2669 51.3779L72.5961 50.8483V52.4549C72.5961 52.5157 72.614 52.5623 72.6498 52.598C72.6892 52.6338 72.7321 52.6517 72.7929 52.6517C72.8824 52.6517 72.9182 52.6231 72.9396 52.6016C72.9611 52.5766 72.9897 52.5372 72.9897 52.4549V49.3919C72.9897 48.7621 72.843 48.186 72.5532 47.6779C72.2633 47.1698 71.8626 46.769 71.3545 46.4792C70.8499 46.1929 70.2774 46.0462 69.6584 46.0462ZM69.6584 52.3833C69.1073 52.3833 68.6028 52.251 68.1591 51.9933C67.7118 51.7357 67.3575 51.3743 67.0999 50.9198C66.8423 50.4654 66.7099 49.9537 66.7099 49.3955C66.7099 48.8373 66.8423 48.3256 67.0999 47.8711C67.3575 47.4167 67.7154 47.0553 68.1591 46.7905C68.6028 46.5257 69.1109 46.3933 69.6619 46.3933C70.213 46.3933 70.7175 46.5257 71.1648 46.7905C71.6121 47.0553 71.9663 47.4167 72.2204 47.8711C72.4745 48.3256 72.6033 48.8373 72.6033 49.3955C72.6033 49.9537 72.4745 50.4654 72.2204 50.9198C71.9663 51.3743 71.6121 51.7357 71.1648 51.9969C70.7139 52.2545 70.2094 52.3833 69.6584 52.3833ZM69.6584 46.7511C69.1717 46.7511 68.728 46.8692 68.338 47.0982C67.9479 47.3272 67.633 47.6493 67.4076 48.0465C67.1822 48.4437 67.0641 48.8981 67.0641 49.3955C67.0641 49.8929 67.1786 50.3437 67.4076 50.7445C67.633 51.1417 67.9479 51.4602 68.338 51.6856C68.728 51.911 69.1717 52.0255 69.6584 52.0255C70.145 52.0255 70.5887 51.911 70.9787 51.6856C71.3688 51.4602 71.6801 51.1417 71.9019 50.7445C72.1238 50.3437 72.2383 49.8929 72.2383 49.3955C72.2383 48.8981 72.1238 48.4472 71.9019 48.0465C71.6801 47.6493 71.3688 47.3308 70.9787 47.0982C70.5887 46.8692 70.145 46.7511 69.6584 46.7511Z" fill="#373435"/>
<path d="M79.8293 47.0007C79.8794 47.058 79.9045 47.1295 79.9045 47.2154C79.9045 47.3335 79.8365 47.4301 79.7041 47.5053C79.6218 47.5375 79.5574 47.5554 79.5144 47.5554C79.3892 47.5554 79.2818 47.5017 79.1995 47.3908C78.7701 46.8433 78.169 46.5713 77.3997 46.5713C76.888 46.5713 76.48 46.6823 76.1759 46.9041C75.8717 47.126 75.7214 47.4015 75.7214 47.7307C75.7214 48.067 75.8682 48.3354 76.1544 48.5358C76.4443 48.7362 76.9309 48.8901 77.6108 48.9902C78.5018 49.1155 79.1423 49.3552 79.5323 49.7023C79.9223 50.0494 80.1192 50.4716 80.1192 50.969C80.1192 51.3555 79.9939 51.6954 79.747 51.9888C79.5001 52.2823 79.1709 52.5113 78.7594 52.6687C78.3479 52.8297 77.897 52.9085 77.4104 52.9085C76.9238 52.9085 76.4478 52.8226 75.9862 52.6508C75.5246 52.4791 75.1418 52.2178 74.8412 51.8636C74.7839 51.7956 74.7517 51.7205 74.7517 51.6382C74.7517 51.5201 74.8054 51.4235 74.9163 51.3483C74.9664 51.3054 75.038 51.2839 75.131 51.2839C75.2491 51.2839 75.3457 51.3304 75.4209 51.4235C75.8395 51.9352 76.5158 52.1928 77.4498 52.1928C78.1117 52.1928 78.602 52.0747 78.9169 51.8385C79.2317 51.6024 79.3892 51.3018 79.3892 50.9297C79.3892 50.2641 78.7451 49.8419 77.4605 49.6558C76.6446 49.5377 76.0292 49.3159 75.6141 48.9867C75.199 48.6575 74.9915 48.2639 74.9915 47.8023C74.9915 47.1904 75.2169 46.7109 75.6642 46.3709C76.1151 46.031 76.6983 45.8593 77.4211 45.8593C78.4803 45.8664 79.2818 46.2457 79.8293 47.0007Z" fill="#373435"/>
<path d="M77.4075 53.0877C76.8994 53.0877 76.4021 52.9982 75.9226 52.8193C75.4359 52.6368 75.0244 52.3542 74.7024 51.982C74.6165 51.8854 74.57 51.7673 74.57 51.6385C74.57 51.4632 74.6523 51.3093 74.8097 51.2019C74.8813 51.1411 74.9922 51.1089 75.1246 51.1089C75.2964 51.1089 75.4431 51.1805 75.554 51.3129C75.9369 51.778 76.5738 52.0178 77.4433 52.0178C78.066 52.0178 78.524 51.9104 78.8031 51.6993C79.0714 51.4989 79.2038 51.2485 79.2038 50.9372C79.2038 50.3789 78.6063 50.0104 77.429 49.8422C76.5881 49.7205 75.9369 49.4844 75.4967 49.1373C75.0387 48.7759 74.8061 48.3286 74.8061 47.8133C74.8061 47.1442 75.0566 46.6146 75.5504 46.2389C76.0299 45.8775 76.6561 45.6914 77.4147 45.6914C78.5275 45.6914 79.3828 46.0958 79.9624 46.8937C80.0376 46.9832 80.0769 47.0941 80.0769 47.2193C80.0769 47.3481 80.0268 47.5271 79.7835 47.6666C79.6547 47.7203 79.5724 47.7418 79.508 47.7418C79.3255 47.7418 79.1681 47.6595 79.05 47.5092C78.6528 47.0046 78.1125 46.7613 77.3897 46.7613C76.9173 46.7613 76.5416 46.8615 76.2732 47.0619C76.0156 47.2515 75.8939 47.4734 75.8939 47.7418C75.8939 48.0173 76.012 48.2356 76.2518 48.4002C76.5166 48.5862 76.9817 48.7294 77.633 48.8224C78.5526 48.9512 79.2325 49.2053 79.6475 49.5774C80.0769 49.9603 80.2916 50.4326 80.2916 50.9765C80.2916 51.4059 80.1521 51.7852 79.8766 52.1108C79.6118 52.4257 79.2539 52.6726 78.8138 52.8444C78.3916 53.0054 77.9157 53.0877 77.4075 53.0877ZM75.1282 51.4632C75.0817 51.4632 75.0459 51.4703 75.028 51.4846C74.9385 51.5455 74.9278 51.5956 74.9278 51.6385C74.9278 51.6779 74.9421 51.7136 74.9707 51.7458C75.2534 52.075 75.6148 52.3219 76.0442 52.483C76.9209 52.8122 77.9121 52.805 78.6886 52.5044C79.0714 52.3577 79.3792 52.143 79.6046 51.8747C79.8265 51.6099 79.9338 51.3165 79.9338 50.9694C79.9338 50.5221 79.7621 50.1535 79.4078 49.835C79.0464 49.513 78.4309 49.2876 77.5793 49.1659C76.8636 49.0586 76.3627 48.9011 76.0478 48.6828C75.7079 48.4467 75.5361 48.1246 75.5361 47.731C75.5361 47.3446 75.7114 47.0189 76.0621 46.7613C76.3949 46.518 76.8422 46.3927 77.3897 46.3927C78.2162 46.3927 78.8711 46.6897 79.3327 47.2802C79.3971 47.366 79.4615 47.3768 79.508 47.3768C79.508 47.3768 79.5402 47.3768 79.6297 47.341C79.7191 47.2873 79.7191 47.2372 79.7191 47.2157C79.7191 47.1621 79.7012 47.137 79.6869 47.1191L79.6762 47.1084C79.1609 46.3963 78.4202 46.0492 77.4147 46.0492C76.7348 46.0492 76.1802 46.2103 75.7651 46.5216C75.3608 46.8293 75.1604 47.2515 75.1604 47.8097C75.1604 48.2177 75.3429 48.5576 75.715 48.8546C76.1051 49.1623 76.6955 49.3734 77.4755 49.4844C78.8567 49.6848 79.5581 50.1714 79.5581 50.9336C79.5581 51.3594 79.3756 51.7136 79.0142 51.9856C78.6635 52.2468 78.1482 52.3756 77.4397 52.3756C76.4557 52.3756 75.7258 52.0965 75.2713 51.5419C75.2391 51.4846 75.1926 51.4632 75.1282 51.4632Z" fill="#373435"/>
<path d="M87.5423 46.2463C87.5423 46.2785 87.5244 46.3393 87.4922 46.4216L83.2591 55.5963C83.1839 55.7466 83.0873 55.8218 82.9692 55.8218C82.9191 55.8218 82.8619 55.8075 82.7939 55.7824C82.6329 55.7144 82.5542 55.6178 82.5542 55.4926C82.5542 55.4604 82.572 55.3995 82.6043 55.3172L83.8638 52.5942C83.8566 52.587 83.8388 52.5548 83.8137 52.5047L81.0549 46.4574C81.0227 46.3894 81.0048 46.3215 81.0048 46.257C81.0048 46.1318 81.0763 46.0352 81.2195 45.9672C81.2874 45.935 81.3554 45.9171 81.4198 45.9171C81.5451 45.9171 81.6417 45.9887 81.7097 46.1318L84.2681 51.7282L86.8373 46.1461C86.9125 45.9958 87.0091 45.9207 87.1272 45.9207C87.1844 45.9207 87.2453 45.935 87.3025 45.9601C87.46 46.0209 87.5423 46.1175 87.5423 46.2463Z" fill="#373435"/>
<path d="M82.9645 56.0008C82.8929 56.0008 82.8106 55.9829 82.7247 55.9507C82.4313 55.8255 82.3705 55.6323 82.3705 55.4927C82.3705 55.4354 82.3884 55.3603 82.4313 55.2494L83.6551 52.6015C83.6515 52.5943 83.6479 52.5907 83.6479 52.5836L80.8855 46.5291C80.8426 46.4432 80.8175 46.3466 80.8175 46.2536C80.8175 46.114 80.8712 45.9244 81.136 45.8027C81.2254 45.7598 81.3185 45.7347 81.4151 45.7347C81.5511 45.7347 81.7443 45.7884 81.8659 46.0496L84.2634 51.2918L86.6716 46.0639C86.8075 45.7884 86.9936 45.7347 87.1224 45.7347C87.2047 45.7347 87.287 45.7526 87.3693 45.7848C87.6592 45.9065 87.7164 46.0997 87.7164 46.2393C87.7164 46.2965 87.6985 46.3717 87.652 46.4826L83.4153 55.6645C83.2829 55.9436 83.0969 56.0008 82.9645 56.0008ZM81.4151 46.0962C81.3757 46.0962 81.3364 46.1069 81.2934 46.1284C81.1789 46.182 81.1789 46.2321 81.1789 46.2572C81.1789 46.2965 81.1896 46.3359 81.2111 46.3788L83.9735 52.4333C83.9843 52.4547 83.995 52.4762 84.0022 52.4869L84.088 52.5764L84.0236 52.673L82.7641 55.3961C82.7355 55.4712 82.7319 55.4999 82.7319 55.5034C82.7319 55.5177 82.7319 55.5678 82.8607 55.6251C82.9144 55.6466 82.9502 55.6501 82.968 55.6501C83.011 55.6501 83.0575 55.6072 83.0969 55.5213L87.33 46.3538C87.3586 46.2858 87.3622 46.2572 87.3622 46.25C87.3622 46.2285 87.355 46.182 87.2334 46.1284C87.1475 46.0926 87.0723 46.0818 86.9972 46.2321L84.267 52.1613L81.5475 46.2107C81.4902 46.0961 81.4437 46.0962 81.4151 46.0962Z" fill="#373435"/>
<path d="M18.6736 36.4951C8.61147 36.4951 0.424377 28.308 0.424377 18.2459C0.424377 8.1838 8.61147 -0.0032959 18.6736 -0.0032959C28.7357 -0.0032959 36.9228 8.1838 36.9228 18.2459C36.9228 28.308 28.7321 36.4951 18.6736 36.4951ZM18.6736 2.50507C9.99268 2.50507 2.92917 9.56859 2.92917 18.2495C2.92917 26.9304 9.99268 33.9939 18.6736 33.9939C27.3545 33.9939 34.418 26.9304 34.418 18.2495C34.418 9.56859 27.3509 2.50507 18.6736 2.50507Z" fill="#373435"/>
<path d="M18.6729 30.5944C13.5023 30.5944 8.83977 27.3311 7.0721 22.4718C6.90392 22.0066 7.14367 21.4949 7.60526 21.3267C8.07044 21.1585 8.58213 21.3983 8.75031 21.8599C10.2639 26.0142 14.2501 28.8053 18.6729 28.8053C23.0956 28.8053 27.0818 26.0142 28.5918 21.8599C28.76 21.3947 29.2753 21.155 29.7369 21.3267C30.2021 21.4949 30.4418 22.0102 30.2701 22.4718C28.5024 27.3275 23.8399 30.5944 18.6729 30.5944Z" fill="#2196F3"/>
<path d="M51.0153 36.4592C44.8213 36.4592 39.7831 31.4209 39.7831 25.227C39.7831 19.033 44.8213 13.9948 51.0153 13.9948C57.2093 13.9948 62.2475 19.033 62.2475 25.227C62.2475 31.4209 57.2057 36.4592 51.0153 36.4592ZM51.0153 16.4995C46.2025 16.4995 42.2878 20.4142 42.2878 25.227C42.2878 30.0397 46.2025 33.9544 51.0153 33.9544C55.828 33.9544 59.7427 30.0397 59.7427 25.227C59.7427 20.4142 55.8245 16.4995 51.0153 16.4995Z" fill="#373435"/>
<path d="M60.9943 26.4794C60.3037 26.4794 59.7419 25.9176 59.7419 25.227V1.25252C59.7419 0.561911 60.3037 0.00012207 60.9943 0.00012207C61.6849 0.00012207 62.2467 0.561911 62.2467 1.25252V25.227C62.2467 25.9211 61.6849 26.4794 60.9943 26.4794Z" fill="#373435"/>
<path d="M76.5218 36.4593C70.3278 36.4593 65.2896 31.4211 65.2896 25.2271C65.2896 19.0331 70.3278 13.9949 76.5218 13.9949C82.7157 13.9949 87.754 19.0331 87.754 25.2271C87.754 31.4211 82.7157 36.4593 76.5218 36.4593ZM76.5218 16.4997C71.709 16.4997 67.7943 20.4143 67.7943 25.2271C67.7943 30.0399 71.709 33.9545 76.5218 33.9545C81.3345 33.9545 85.2492 30.0399 85.2492 25.2271C85.2492 20.4143 81.3345 16.4997 76.5218 16.4997Z" fill="#373435"/>
<path d="M86.5019 36.4591C85.8113 36.4591 85.2495 35.8973 85.2495 35.2067V24.4719C85.2495 23.7813 85.8113 23.2195 86.5019 23.2195C87.1925 23.2195 87.7543 23.7813 87.7543 24.4719V35.2067C87.7543 35.9009 87.1961 36.4591 86.5019 36.4591Z" fill="#373435"/>
</g>
<defs>
<clipPath id="clip0_6640_86895">
<rect width="87.5103" height="56" fill="white" transform="translate(0.244873)"/>
</clipPath>
</defs>
</svg>
