<svg width="178" height="115" viewBox="0 0 178 115" fill="none" xmlns="http://www.w3.org/2000/svg">
<g clip-path="url(#clip0_6640_2833)">
<path d="M11.405 94.6725C12.4936 95.2967 13.3499 96.153 13.9741 97.2416C14.5982 98.3302 14.9103 99.5495 14.9103 100.892C14.9103 102.22 14.5982 103.432 13.9741 104.521C13.3499 105.609 12.4936 106.466 11.405 107.09C10.3164 107.714 9.10437 108.019 7.77628 108.019C6.42641 108.019 5.21444 107.707 4.11858 107.09C3.02998 106.466 2.17361 105.609 1.54948 104.521C0.925347 103.432 0.613281 102.22 0.613281 100.892C0.613281 99.5495 0.925347 98.3302 1.54948 97.2416C2.17361 96.153 3.02998 95.2967 4.11858 94.6725C5.20718 94.0484 6.42641 93.7363 7.77628 93.7363C9.10437 93.7363 10.3164 94.0484 11.405 94.6725ZM4.91689 95.9208C4.06778 96.4216 3.39284 97.111 2.89934 97.9819C2.40585 98.8528 2.1591 99.8252 2.1591 100.892C2.1591 101.966 2.40585 102.939 2.89934 103.802C3.39284 104.673 4.06778 105.355 4.91689 105.849C5.766 106.342 6.72397 106.589 7.77628 106.589C8.83585 106.589 9.78657 106.342 10.6357 105.849C11.4848 105.355 12.1597 104.673 12.6387 103.802C13.1249 102.931 13.3644 101.959 13.3644 100.892C13.3644 99.818 13.1249 98.8455 12.6387 97.9819C12.1525 97.111 11.4848 96.4288 10.6357 95.9208C9.78657 95.42 8.8286 95.166 7.77628 95.166C6.71671 95.166 5.766 95.42 4.91689 95.9208Z" fill="#373435"/>
<path d="M7.77642 108.381C6.37575 108.381 5.08395 108.054 3.94454 107.401C2.80514 106.748 1.89072 105.841 1.23755 104.694C0.584393 103.555 0.257812 102.27 0.257812 100.884C0.257812 99.4832 0.584393 98.1914 1.23755 97.052C1.89072 95.9126 2.79788 94.9981 3.93729 94.345C5.07669 93.6918 6.3685 93.3652 7.76917 93.3652C9.15532 93.3652 10.4399 93.6918 11.5793 94.345C12.7187 94.9981 13.6331 95.9053 14.2863 97.052C14.9394 98.1914 15.266 99.4832 15.266 100.884C15.266 102.27 14.9394 103.555 14.2863 104.694C13.6331 105.833 12.7259 106.748 11.5793 107.401C10.4471 108.054 9.16258 108.381 7.77642 108.381ZM7.77642 94.0982C6.49913 94.0982 5.3307 94.3958 4.30015 94.9836C3.26961 95.5715 2.45679 96.3915 1.86894 97.4148C1.2811 98.4454 0.983547 99.6138 0.983547 100.891C0.983547 102.147 1.2811 103.308 1.86894 104.338C2.45679 105.369 3.26961 106.182 4.30015 106.77C5.3307 107.357 6.49913 107.655 7.77642 107.655C9.03194 107.655 10.1931 107.357 11.2237 106.77C12.2542 106.182 13.067 105.362 13.6549 104.338C14.2427 103.308 14.5403 102.147 14.5403 100.891C14.5403 99.6138 14.2427 98.4454 13.6549 97.4148C13.067 96.3843 12.2469 95.5715 11.2237 94.9836C10.1931 94.3958 9.03194 94.0982 7.77642 94.0982ZM7.77642 106.951C6.65879 106.951 5.63551 106.682 4.73559 106.16C3.82843 105.637 3.10995 104.904 2.58016 103.983C2.05763 103.061 1.78911 102.023 1.78911 100.891C1.78911 99.759 2.05763 98.7212 2.58016 97.7995C3.10269 96.8778 3.82843 96.1448 4.72834 95.6078C5.62825 95.0707 6.65879 94.8022 7.77642 94.8022C8.89405 94.8022 9.91734 95.0707 10.8245 95.6078C11.7317 96.1448 12.4502 96.8778 12.9654 97.7995C13.4807 98.7212 13.742 99.759 13.742 100.891C13.742 102.023 13.4807 103.061 12.9654 103.983C12.4502 104.904 11.7317 105.637 10.8245 106.167C9.91734 106.69 8.89405 106.951 7.77642 106.951ZM7.77642 95.5279C6.78942 95.5279 5.88951 95.7674 5.09846 96.2319C4.30741 96.6964 3.66877 97.3495 3.21155 98.1551C2.75434 98.9607 2.51485 99.8823 2.51485 100.891C2.51485 101.9 2.74708 102.814 3.21155 103.627C3.66877 104.433 4.30741 105.079 5.09846 105.536C5.88951 105.993 6.78942 106.225 7.77642 106.225C8.76342 106.225 9.66333 105.993 10.4544 105.536C11.2454 105.079 11.8768 104.433 12.3268 103.627C12.7767 102.814 13.009 101.9 13.009 100.891C13.009 99.8823 12.7767 98.9679 12.3268 98.1551C11.8768 97.3495 11.2454 96.7036 10.4544 96.2319C9.66333 95.7674 8.76342 95.5279 7.77642 95.5279Z" fill="#373435"/>
<path d="M26.6072 94.73C26.6072 94.8171 26.5999 94.8824 26.5782 94.9332C26.5274 95.1219 26.4475 95.2525 26.3387 95.3323C26.2298 95.4122 26.0774 95.4484 25.8887 95.4484C25.7363 95.4484 25.5331 95.4339 25.2864 95.3976C25.0396 95.3614 24.8291 95.3468 24.6622 95.3468C23.8131 95.3468 23.0511 95.5283 22.3907 95.8839C21.723 96.2395 21.2077 96.733 20.8304 97.3644C20.453 97.9958 20.2715 98.6997 20.2715 99.4835V107.256C20.2715 107.481 20.2062 107.663 20.0683 107.808C19.9304 107.953 19.7417 108.025 19.5095 108.025C19.2845 108.025 19.1031 107.953 18.958 107.808C18.8128 107.663 18.7402 107.481 18.7402 107.256V94.8098C18.7402 94.5703 18.8128 94.3816 18.958 94.251C19.1031 94.1131 19.2845 94.0478 19.5095 94.0478C19.749 94.0478 19.9377 94.1131 20.0683 94.251C20.2062 94.3889 20.2715 94.5776 20.2715 94.8098V96.3919C20.765 95.6081 21.3964 94.9985 22.1657 94.5485C22.935 94.1058 23.7696 93.8809 24.6695 93.8809C25.9613 93.8881 26.6072 94.1712 26.6072 94.73Z" fill="#373435"/>
<path d="M19.5032 108.381C19.1839 108.381 18.9081 108.272 18.6977 108.055C18.4872 107.844 18.3711 107.561 18.3711 107.249V94.8027C18.3711 94.4616 18.48 94.1858 18.7049 93.9753C19.1476 93.5617 19.9169 93.5835 20.3233 93.9826C20.5338 94.1858 20.6354 94.4616 20.6354 94.8027V95.318C21.0273 94.8898 21.4772 94.5269 21.9853 94.2366C22.8053 93.7649 23.7052 93.5254 24.6705 93.5254C26.2018 93.5254 26.9783 93.9318 26.9783 94.7301C26.9783 94.8535 26.9638 94.9551 26.9348 95.0494C26.8694 95.3034 26.7388 95.5066 26.5574 95.63C26.2743 95.826 25.9405 95.855 25.2511 95.7534C25.0261 95.7244 24.8301 95.7026 24.6777 95.7026C23.8939 95.7026 23.1827 95.8695 22.5731 96.1961C21.9707 96.5227 21.4918 96.9726 21.1507 97.546C20.8096 98.1193 20.6426 98.7652 20.6426 99.4837V107.256C20.6426 107.576 20.541 107.844 20.3378 108.055C20.1274 108.272 19.8443 108.381 19.5032 108.381ZM19.5032 94.4035C19.3726 94.4035 19.2783 94.4398 19.2057 94.5124C19.1621 94.5559 19.1041 94.6285 19.1041 94.8099V107.256C19.1041 107.38 19.1404 107.474 19.2129 107.547C19.2928 107.626 19.3799 107.655 19.5032 107.655C19.6847 107.655 19.7572 107.597 19.8008 107.554C19.8443 107.503 19.9097 107.423 19.9097 107.256V99.4837C19.9097 98.6346 20.1129 97.858 20.5193 97.1758C20.9257 96.4936 21.499 95.9493 22.2175 95.5574C22.936 95.1728 23.756 94.9769 24.6632 94.9769C24.8446 94.9769 25.0696 94.9914 25.3381 95.0349C25.7446 95.093 26.0203 95.1075 26.1292 95.0349C26.1655 95.0131 26.2018 94.9406 26.2308 94.8462C26.2381 94.8317 26.2453 94.8027 26.2453 94.7374C26.2453 94.4398 25.6575 94.2584 24.6632 94.2584C23.8286 94.2584 23.0448 94.4688 22.3409 94.8753C21.6296 95.2889 21.0345 95.8623 20.5773 96.5952L19.9097 97.6548V94.8172C19.9097 94.6067 19.8371 94.5342 19.808 94.5124C19.7863 94.4761 19.7137 94.4035 19.5032 94.4035Z" fill="#373435"/>
<path d="M42.2246 88.1089C42.3625 88.2468 42.4278 88.4355 42.4278 88.6677V100.962V101.012C42.4133 102.326 42.0867 103.516 41.4553 104.59C40.824 105.664 39.9676 106.506 38.8862 107.109C37.8049 107.711 36.6074 108.016 35.2939 108.016C33.944 108.016 32.732 107.704 31.6362 107.087C30.5476 106.463 29.6912 105.606 29.0671 104.518C28.4429 103.429 28.1309 102.21 28.1309 100.86C28.1309 99.532 28.4429 98.32 29.0671 97.2314C29.6912 96.1428 30.5476 95.2864 31.6362 94.6623C32.7248 94.0382 33.944 93.7261 35.2939 93.7261C36.5058 93.7261 37.5944 93.9874 38.5742 94.5026C39.5539 95.0252 40.3232 95.7364 40.8893 96.6363V88.6605C40.8893 88.421 40.9618 88.2323 41.107 88.1016C41.2521 87.9638 41.4336 87.8984 41.6585 87.8984C41.898 87.9057 42.0867 87.9783 42.2246 88.1089ZM38.1605 105.831C39.0096 105.331 39.6846 104.641 40.1635 103.778C40.6498 102.907 40.8893 101.934 40.8893 100.867C40.8893 99.7932 40.6498 98.8207 40.1635 97.9571C39.6773 97.0862 39.0096 96.404 38.1605 95.9105C37.3114 95.417 36.3534 95.1703 35.3011 95.1703C34.2415 95.1703 33.2908 95.417 32.4417 95.9105C31.5926 96.404 30.9177 97.0862 30.4242 97.9571C29.9307 98.828 29.6839 99.8005 29.6839 100.867C29.6839 101.941 29.9307 102.914 30.4242 103.778C30.9177 104.648 31.5926 105.331 32.4417 105.831C33.2908 106.332 34.2488 106.586 35.3011 106.586C36.3534 106.586 37.3041 106.339 38.1605 105.831Z" fill="#373435"/>
<path d="M35.296 108.38C33.8953 108.38 32.6035 108.053 31.4641 107.4C30.3247 106.747 29.4102 105.84 28.7571 104.693C28.1039 103.554 27.7773 102.262 27.7773 100.861C27.7773 99.4753 28.1039 98.1907 28.7571 97.0513C29.4102 95.9119 30.3174 94.9975 31.4568 94.3443C32.5962 93.6912 33.888 93.3646 35.2887 93.3646C36.5515 93.3646 37.7127 93.6404 38.7432 94.1847C39.4326 94.5475 40.0277 95.012 40.5212 95.5563V88.6618C40.5212 88.3207 40.6301 88.0449 40.8551 87.8345C41.2978 87.4208 42.0671 87.4426 42.4735 87.8417C42.6767 88.0449 42.7855 88.3207 42.7855 88.6618V100.956C42.771 102.378 42.4227 103.648 41.7622 104.766C41.1018 105.891 40.1947 106.783 39.0553 107.415C37.9376 108.061 36.6676 108.38 35.296 108.38ZM35.296 94.0976C34.0187 94.0976 32.8502 94.3951 31.8197 94.983C30.7891 95.5708 29.9691 96.3909 29.3885 97.4142C28.8006 98.4447 28.5031 99.6059 28.5031 100.861C28.5031 102.139 28.8006 103.307 29.3885 104.338C29.9763 105.368 30.7964 106.181 31.8197 106.769C32.8502 107.357 34.0187 107.654 35.296 107.654C36.537 107.654 37.6836 107.364 38.7069 106.791C39.7229 106.217 40.543 105.419 41.1381 104.403C41.7332 103.387 42.0453 102.248 42.0598 101.007V88.6691C42.0598 88.4659 41.9872 88.386 41.9655 88.3643C41.9364 88.3425 41.8639 88.2627 41.6606 88.2627C41.4937 88.2627 41.4066 88.3207 41.3631 88.3715C41.3196 88.4151 41.2615 88.4876 41.2615 88.6691V97.9149L40.5938 96.8408C40.0713 95.999 39.3383 95.3241 38.4166 94.8378C37.4877 94.3443 36.4426 94.0976 35.296 94.0976ZM35.296 106.95C34.1783 106.95 33.155 106.682 32.2479 106.145C31.348 105.615 30.6222 104.875 30.0997 103.953C29.5772 103.031 29.3086 101.994 29.3086 100.861C29.3086 99.7293 29.5772 98.6915 30.0997 97.7698C30.6222 96.8481 31.348 96.1151 32.2551 95.5926C33.155 95.0701 34.1856 94.8015 35.296 94.8015C36.4136 94.8015 37.4369 95.0701 38.3368 95.5926C39.244 96.1151 39.9624 96.8554 40.4777 97.777C40.993 98.6987 41.2542 99.7365 41.2542 100.869C41.2542 102.001 40.993 103.039 40.4777 103.96C39.9624 104.882 39.244 105.622 38.3368 106.152C37.4369 106.682 36.4136 106.95 35.296 106.95ZM35.296 95.5273C34.309 95.5273 33.409 95.7595 32.618 96.2167C31.8269 96.6739 31.1883 97.3198 30.7311 98.1254C30.2739 98.931 30.0344 99.8526 30.0344 100.861C30.0344 101.863 30.2666 102.785 30.7311 103.597C31.1883 104.41 31.8269 105.056 32.618 105.521C33.409 105.985 34.309 106.225 35.296 106.225C36.283 106.225 37.1829 105.985 37.9739 105.521C38.765 105.056 39.3964 104.41 39.8463 103.597C40.2963 102.785 40.5285 101.863 40.5285 100.861C40.5285 99.8526 40.2963 98.9382 39.8463 98.1254C39.3964 97.3198 38.765 96.6739 37.9739 96.2167C37.1901 95.7595 36.283 95.5273 35.296 95.5273Z" fill="#373435"/>
<path d="M56.1655 94.6714C57.1452 95.2592 57.9073 96.0721 58.4516 97.1099C58.9959 98.1477 59.2716 99.3306 59.2716 100.659C59.2716 100.884 59.2063 101.058 59.0684 101.181C58.9305 101.312 58.7491 101.37 58.5314 101.37H47.8195C47.8703 102.379 48.1316 103.271 48.6106 104.062C49.0896 104.853 49.7282 105.47 50.5265 105.913C51.3248 106.356 52.2247 106.581 53.2117 106.581C53.8794 106.581 54.5471 106.465 55.2148 106.232C55.8897 106 56.4195 105.703 56.8114 105.325C56.9783 105.187 57.1597 105.122 57.3484 105.122C57.5371 105.122 57.6895 105.173 57.8056 105.274C57.9943 105.427 58.0887 105.608 58.0887 105.811C58.0887 105.978 58.0089 106.145 57.8565 106.298C57.3121 106.791 56.6009 107.198 55.7228 107.524C54.8447 107.851 54.0028 108.01 53.2045 108.01C51.8546 108.01 50.6644 107.706 49.6121 107.103C48.567 106.501 47.7397 105.652 47.1446 104.57C46.5495 103.489 46.252 102.27 46.252 100.905C46.252 99.5266 46.5277 98.2928 47.0793 97.2115C47.6308 96.1301 48.4074 95.2883 49.4016 94.6787C50.3959 94.0763 51.5353 93.7715 52.8126 93.7715C54.0681 93.786 55.1857 94.0836 56.1655 94.6714ZM49.467 96.5438C48.5525 97.4292 48.0155 98.5976 47.8413 100.042H57.7839C57.6678 98.5904 57.1525 97.4292 56.2526 96.5438C55.3527 95.6584 54.206 95.2157 52.8271 95.2157C51.499 95.2157 50.3741 95.6584 49.467 96.5438Z" fill="#373435"/>
<path d="M53.2138 108.381C51.8132 108.381 50.5431 108.061 49.44 107.423C48.3369 106.791 47.466 105.891 46.8346 104.752C46.2105 103.62 45.8984 102.328 45.8984 100.913C45.8984 99.4832 46.1887 98.1841 46.7693 97.0519C47.3499 95.9125 48.1772 95.0126 49.2296 94.374C50.2819 93.7353 51.4939 93.416 52.8292 93.416C54.1355 93.416 55.3185 93.7281 56.349 94.3522C57.3796 94.9763 58.1996 95.84 58.773 96.9358C59.3463 98.0244 59.6293 99.2727 59.6293 100.659C59.6293 101.065 59.4552 101.312 59.31 101.45C59.1068 101.646 58.8383 101.74 58.5262 101.74H48.2135C48.3006 102.531 48.5401 103.25 48.9247 103.888C49.3674 104.621 49.9626 105.202 50.7028 105.608C51.9438 106.298 53.5259 106.436 55.1007 105.899C55.7176 105.688 56.2111 105.405 56.5667 105.071C57.082 104.65 57.6771 104.687 58.0472 105.006C58.3811 105.275 58.4536 105.601 58.4536 105.819C58.4536 106.087 58.3375 106.341 58.1198 106.559C57.532 107.096 56.7772 107.532 55.8555 107.873C54.9411 108.214 54.0557 108.381 53.2138 108.381ZM52.8292 94.149C51.6245 94.149 50.5431 94.4393 49.6069 95.0054C48.6707 95.5714 47.9378 96.377 47.4152 97.393C46.8927 98.4163 46.6242 99.6065 46.6242 100.92C46.6242 102.219 46.9072 103.388 47.4733 104.411C48.0321 105.427 48.8159 106.232 49.8029 106.806C50.7899 107.372 51.9365 107.662 53.2138 107.662C53.9686 107.662 54.7742 107.51 55.6015 107.198C56.4288 106.893 57.111 106.501 57.619 106.044C57.7279 105.935 57.7279 105.855 57.7279 105.826C57.7279 105.761 57.7134 105.674 57.5828 105.572C57.5102 105.507 57.278 105.434 57.0457 105.623C56.6393 106.015 56.0587 106.341 55.3402 106.588C53.5695 107.19 51.7769 107.031 50.3544 106.24C49.4981 105.768 48.8086 105.1 48.3006 104.258C47.7926 103.417 47.5096 102.459 47.4588 101.392L47.437 101.007H58.5262C58.6931 101.007 58.773 100.956 58.8165 100.913C58.8528 100.877 58.9036 100.811 58.9036 100.652C58.9036 99.3888 58.6423 98.2494 58.1271 97.2697C57.619 96.2972 56.8933 95.5207 55.9789 94.9691C55.0572 94.4248 53.9976 94.149 52.8292 94.149ZM58.1779 100.412H47.437L47.4878 100.006C47.6692 98.4816 48.2498 97.2261 49.215 96.2899C50.1948 95.3392 51.4068 94.8602 52.8292 94.8602C54.3024 94.8602 55.5362 95.3392 56.5087 96.2899C57.4739 97.2334 58.0255 98.4889 58.1488 100.02L58.1779 100.412ZM48.2643 99.6864H57.3796C57.2126 98.5107 56.7482 97.5454 56.0007 96.8052C55.1588 95.9779 54.121 95.5787 52.8292 95.5787C51.5882 95.5787 50.5722 95.9779 49.7231 96.8052C48.961 97.5454 48.4748 98.5107 48.2643 99.6864Z" fill="#373435"/>
<path d="M70.4646 94.73C70.4646 94.8171 70.4574 94.8824 70.4356 94.9332C70.3848 95.1219 70.305 95.2525 70.1961 95.3323C70.0872 95.4122 69.9348 95.4484 69.7461 95.4484C69.5937 95.4484 69.3905 95.4339 69.1438 95.3976C68.897 95.3614 68.6866 95.3468 68.5196 95.3468C67.6705 95.3468 66.9085 95.5283 66.2481 95.8839C65.5804 96.2395 65.0652 96.733 64.6878 97.3644C64.3104 97.9958 64.129 98.6997 64.129 99.4835V107.256C64.129 107.481 64.0636 107.663 63.9258 107.808C63.7879 107.953 63.5992 108.025 63.3669 108.025C63.142 108.025 62.9605 107.953 62.8154 107.808C62.6702 107.663 62.5977 107.481 62.5977 107.256V94.8098C62.5977 94.5703 62.6702 94.3816 62.8154 94.251C62.9605 94.1131 63.142 94.0478 63.3669 94.0478C63.6064 94.0478 63.7951 94.1131 63.9258 94.251C64.0636 94.3889 64.129 94.5776 64.129 94.8098V96.3919C64.6225 95.6081 65.2538 94.9985 66.0231 94.5485C66.7924 94.1058 67.627 93.8809 68.5269 93.8809C69.8115 93.8881 70.4646 94.1712 70.4646 94.73Z" fill="#373435"/>
<path d="M63.3607 108.381C63.0413 108.381 62.7656 108.272 62.5551 108.055C62.3446 107.844 62.2285 107.561 62.2285 107.249V94.8027C62.2285 94.4616 62.3374 94.1858 62.5624 93.9753C63.0051 93.5617 63.7816 93.5835 64.1807 93.9826C64.3912 94.1931 64.4928 94.4688 64.4928 94.8027V95.318C64.8847 94.8898 65.3347 94.5269 65.8427 94.2366C66.6628 93.7649 67.5627 93.5254 68.5279 93.5254C70.0592 93.5254 70.8357 93.9318 70.8357 94.7301C70.8357 94.8535 70.8212 94.9551 70.7922 95.0494C70.7196 95.3034 70.5962 95.5066 70.4148 95.63C70.1318 95.826 69.7979 95.855 69.1085 95.7534C68.8835 95.7244 68.6876 95.7026 68.5352 95.7026C67.7514 95.7026 67.0401 95.8695 66.4305 96.1961C65.8282 96.5227 65.3492 96.9726 65.0153 97.546C64.6742 98.1193 64.5073 98.7652 64.5073 99.4837V107.256C64.5073 107.568 64.4057 107.837 64.2025 108.055C64.0429 108.207 63.7816 108.381 63.3607 108.381ZM63.3607 94.4035C63.23 94.4035 63.1357 94.4398 63.0559 94.5124C63.0123 94.5559 62.9543 94.6285 62.9543 94.8099V107.256C62.9543 107.38 62.9905 107.474 63.0631 107.547C63.1429 107.626 63.23 107.655 63.3534 107.655C63.5348 107.655 63.6074 107.597 63.651 107.554C63.7235 107.474 63.7598 107.38 63.7598 107.256V99.4837C63.7598 98.6346 63.963 97.858 64.3694 97.1758C64.7758 96.4936 65.3492 95.9493 66.0677 95.5574C66.7861 95.1728 67.6062 94.9769 68.5134 94.9769C68.6948 94.9769 68.9198 94.9914 69.1883 95.0349C69.5875 95.093 69.8705 95.1075 69.9794 95.0349C69.9939 95.0277 70.0374 94.9841 70.081 94.839C70.0882 94.8245 70.0955 94.7954 70.0955 94.7301C70.0955 94.4326 69.5076 94.2511 68.5134 94.2511C67.6788 94.2511 66.895 94.4616 66.191 94.868C65.4798 95.2817 64.8847 95.855 64.4275 96.588L63.7598 97.6476V94.8099C63.7598 94.5995 63.6872 94.5269 63.6582 94.5051C63.6437 94.4761 63.5639 94.4035 63.3607 94.4035Z" fill="#373435"/>
<path d="M71.6496 105.81C71.8962 106.057 72.0194 106.361 72.0194 106.716C72.0194 107.072 71.8962 107.384 71.6496 107.637C71.4031 107.891 71.0985 108.022 70.7432 108.022C70.3662 108.022 70.0616 107.898 69.8151 107.652C69.5686 107.405 69.4453 107.094 69.4453 106.724C69.4453 106.368 69.5758 106.064 69.8296 105.817C70.0834 105.571 70.3879 105.448 70.7505 105.448C71.1058 105.44 71.4031 105.564 71.6496 105.81Z" fill="#373435"/>
<path d="M70.7415 108.381C70.2697 108.381 69.8706 108.221 69.5513 107.902C69.2319 107.582 69.0723 107.183 69.0723 106.712C69.0723 106.254 69.2392 105.862 69.5658 105.543C70.2189 104.912 71.2712 104.919 71.9026 105.543C72.222 105.862 72.3816 106.254 72.3816 106.704C72.3816 107.154 72.222 107.553 71.9099 107.873C71.5978 108.214 71.1987 108.381 70.7415 108.381ZM70.7415 105.804C70.4802 105.804 70.2625 105.891 70.0738 106.073C69.8851 106.254 69.8053 106.458 69.8053 106.719C69.8053 106.995 69.8923 107.22 70.0665 107.394C70.4149 107.742 71.0172 107.771 71.3874 107.386C71.5688 107.198 71.6559 106.98 71.6559 106.719C71.6559 106.458 71.5688 106.247 71.3946 106.066C71.2204 105.891 71.0027 105.804 70.7415 105.804Z" fill="#373435"/>
<path d="M92.0208 96.0358C92.1224 96.1519 92.1732 96.2971 92.1732 96.4712C92.1732 96.7107 92.0353 96.9067 91.7668 97.0591C91.5999 97.1244 91.4693 97.1607 91.3822 97.1607C91.1282 97.1607 90.9105 97.0518 90.7435 96.8268C89.8727 95.7165 88.6534 95.1649 87.0931 95.1649C86.0553 95.1649 85.228 95.3899 84.6111 95.8398C83.9942 96.2898 83.6894 96.8486 83.6894 97.5163C83.6894 98.1985 83.9869 98.7428 84.5675 99.1492C85.1554 99.5556 86.1424 99.8677 87.5213 100.071C89.3284 100.325 90.6274 100.811 91.4185 101.515C92.2095 102.219 92.6087 103.075 92.6087 104.084C92.6087 104.868 92.3547 105.557 91.8539 106.153C91.3532 106.748 90.6855 107.212 89.8509 107.531C89.0163 107.858 88.1019 108.018 87.1149 108.018C86.1279 108.018 85.1626 107.843 84.2264 107.495C83.2902 107.147 82.5137 106.617 81.9041 105.899C81.788 105.761 81.7227 105.608 81.7227 105.441C81.7227 105.202 81.8315 105.006 82.0565 104.853C82.1581 104.766 82.3032 104.723 82.4919 104.723C82.7314 104.723 82.9274 104.817 83.0798 105.006C83.9289 106.044 85.3005 106.566 87.1947 106.566C88.5373 106.566 89.5316 106.327 90.1702 105.848C90.8089 105.369 91.1282 104.759 91.1282 104.004C91.1282 102.654 89.8219 101.798 87.2165 101.421C85.5618 101.181 84.3135 100.731 83.4717 100.064C82.6298 99.3959 82.2089 98.5976 82.2089 97.6614C82.2089 96.4204 82.6661 95.4479 83.5733 94.7585C84.4877 94.0691 85.6707 93.7207 87.1366 93.7207C89.2921 93.7352 90.9177 94.5045 92.0208 96.0358Z" fill="#373435"/>
<path d="M87.1164 108.382C86.0859 108.382 85.0771 108.2 84.1046 107.837C83.1176 107.467 82.283 106.894 81.6299 106.139C81.4557 105.936 81.3613 105.704 81.3613 105.443C81.3613 105.087 81.5282 104.775 81.8476 104.557C81.9927 104.434 82.2177 104.368 82.4862 104.368C82.8346 104.368 83.1321 104.514 83.3571 104.782C84.1336 105.726 85.4254 106.212 87.189 106.212C88.4518 106.212 89.3807 105.994 89.9468 105.566C90.4911 105.16 90.7596 104.652 90.7596 104.02C90.7596 102.888 89.5476 102.14 87.1599 101.799C85.4545 101.553 84.1336 101.074 83.241 100.37C82.312 99.6367 81.8403 98.7295 81.8403 97.6845C81.8403 96.3273 82.3483 95.2533 83.3498 94.4912C84.3223 93.7582 85.5924 93.3809 87.1309 93.3809C89.3879 93.3809 91.1225 94.2009 92.2981 95.8193C92.4506 96.0008 92.5304 96.2257 92.5304 96.4797C92.5304 96.741 92.4288 97.1039 91.9353 97.3869C91.674 97.4958 91.5071 97.5393 91.3765 97.5393C91.0063 97.5393 90.687 97.3724 90.4475 97.0676C89.642 96.0443 88.5461 95.5508 87.0801 95.5508C86.1221 95.5508 85.3601 95.754 84.8158 96.1604C84.2933 96.5451 84.0465 96.995 84.0465 97.5393C84.0465 98.0981 84.286 98.5408 84.7723 98.8747C85.3093 99.252 86.2528 99.5423 87.5664 99.731C89.4315 99.9923 90.8104 100.508 91.6522 101.262C92.5231 102.039 92.9586 102.99 92.9586 104.1C92.9586 104.971 92.6755 105.74 92.1167 106.401C91.5797 107.039 90.8539 107.54 89.9613 107.888C89.1122 108.215 88.1469 108.382 87.1164 108.382ZM82.4935 105.087C82.3991 105.087 82.3266 105.101 82.2903 105.131C82.1088 105.254 82.0871 105.355 82.0871 105.443C82.0871 105.522 82.1161 105.595 82.1742 105.66C82.7475 106.328 83.4805 106.829 84.3514 107.155C86.1367 107.823 88.1397 107.808 89.7145 107.199C90.4911 106.901 91.1152 106.466 91.5724 105.922C92.0224 105.385 92.2401 104.789 92.2401 104.085C92.2401 103.178 91.8917 102.431 91.1733 101.785C90.4403 101.132 89.192 100.674 87.4648 100.428C86.0133 100.21 84.9973 99.8907 84.3586 99.448C83.6692 98.969 83.3208 98.3159 83.3208 97.5175C83.3208 96.7338 83.6764 96.0733 84.3876 95.5508C85.0626 95.0573 85.9697 94.8033 87.0801 94.8033C88.7566 94.8033 90.0847 95.4057 91.0209 96.6031C91.1515 96.7773 91.2821 96.7991 91.3765 96.7991C91.3765 96.7991 91.4418 96.7991 91.6232 96.7265C91.8046 96.6176 91.8046 96.516 91.8046 96.4725C91.8046 96.3854 91.7829 96.3273 91.7393 96.2765L91.7176 96.2548C90.6725 94.8106 89.1702 94.1066 87.1309 94.1066C85.752 94.1066 84.6271 94.4332 83.7853 95.0646C82.9652 95.6887 82.5588 96.5451 82.5588 97.6772C82.5588 98.5045 82.9289 99.2012 83.6837 99.7963C84.4747 100.42 85.6722 100.849 87.2543 101.074C90.0556 101.48 91.4781 102.467 91.4781 104.013C91.4781 104.876 91.1079 105.595 90.3749 106.147C89.6637 106.676 88.6187 106.938 87.1817 106.938C85.1859 106.938 83.7054 106.372 82.7838 105.247C82.7112 105.13 82.6241 105.087 82.4935 105.087Z" fill="#373435"/>
<path d="M106.075 94.6706C107.164 95.2947 108.02 96.1511 108.645 97.2397C109.269 98.3283 109.581 99.5475 109.581 100.89C109.581 102.218 109.269 103.43 108.645 104.519C108.02 105.607 107.164 106.464 106.075 107.088C104.987 107.712 103.775 108.017 102.447 108.017C101.097 108.017 99.8849 107.705 98.7891 107.088C97.6932 106.471 96.8441 105.607 96.22 104.519C95.5958 103.43 95.291 102.218 95.291 100.89C95.291 99.5475 95.6031 98.3283 96.22 97.2397C96.8441 96.1511 97.7005 95.2947 98.7891 94.6706C99.8777 94.0464 101.097 93.7344 102.447 93.7344C103.775 93.7344 104.987 94.0464 106.075 94.6706ZM99.5874 95.9188C98.7383 96.4196 98.0633 97.109 97.5698 97.9799C97.0763 98.8508 96.8296 99.8233 96.8296 100.89C96.8296 101.964 97.0763 102.937 97.5698 103.8C98.0633 104.671 98.7383 105.353 99.5874 105.847C100.436 106.34 101.394 106.587 102.447 106.587C103.499 106.587 104.457 106.34 105.306 105.847C106.155 105.353 106.823 104.671 107.309 103.8C107.795 102.929 108.035 101.957 108.035 100.89C108.035 99.816 107.795 98.8436 107.309 97.9799C106.823 97.109 106.155 96.4269 105.306 95.9188C104.457 95.4181 103.499 95.1641 102.447 95.1641C101.387 95.1641 100.436 95.4181 99.5874 95.9188Z" fill="#373435"/>
<path d="M102.448 108.381C101.048 108.381 99.7558 108.054 98.6164 107.401C97.477 106.748 96.5626 105.841 95.9094 104.694C95.2563 103.555 94.9297 102.27 94.9297 100.884C94.9297 99.4832 95.2563 98.1914 95.9094 97.052C96.5626 95.9126 97.4698 94.9981 98.6164 94.345C99.7558 93.6918 101.048 93.3652 102.448 93.3652C103.834 93.3652 105.119 93.6918 106.258 94.345C107.398 94.9981 108.312 95.9053 108.965 97.052C109.619 98.1914 109.945 99.4832 109.945 100.884C109.945 102.27 109.619 103.555 108.965 104.694C108.312 105.841 107.405 106.748 106.258 107.401C105.119 108.054 103.834 108.381 102.448 108.381ZM102.448 94.0982C101.171 94.0982 100.003 94.3958 98.972 94.9836C97.9415 95.5715 97.1287 96.3915 96.5408 97.4148C95.953 98.4454 95.6554 99.6138 95.6554 100.891C95.6554 102.154 95.953 103.308 96.5408 104.338C97.1287 105.369 97.9487 106.182 98.972 106.77C100.003 107.357 101.171 107.655 102.448 107.655C103.704 107.655 104.865 107.357 105.896 106.77C106.926 106.182 107.739 105.369 108.327 104.338C108.915 103.308 109.212 102.147 109.212 100.891C109.212 99.6138 108.915 98.4454 108.327 97.4148C107.739 96.3843 106.919 95.5642 105.896 94.9836C104.865 94.3958 103.704 94.0982 102.448 94.0982ZM102.448 106.951C101.331 106.951 100.307 106.682 99.4075 106.16C98.5003 105.637 97.7818 104.904 97.252 103.983C96.7295 103.061 96.461 102.023 96.461 100.891C96.461 99.759 96.7295 98.7212 97.252 97.7995C97.7746 96.8778 98.5003 96.1448 99.4002 95.6078C100.307 95.0707 101.331 94.8022 102.448 94.8022C103.566 94.8022 104.589 95.0707 105.496 95.6078C106.404 96.1448 107.122 96.8778 107.637 97.7995C108.153 98.7212 108.414 99.759 108.414 100.891C108.414 102.023 108.153 103.061 107.637 103.983C107.122 104.904 106.404 105.637 105.496 106.167C104.589 106.69 103.566 106.951 102.448 106.951ZM102.448 95.5279C101.461 95.5279 100.561 95.7674 99.7703 96.2319C98.9793 96.6964 98.3406 97.3495 97.8834 98.1551C97.4262 98.9607 97.1867 99.8823 97.1867 100.891C97.1867 101.893 97.419 102.814 97.8834 103.627C98.3406 104.433 98.9793 105.079 99.7703 105.536C100.561 105.993 101.461 106.225 102.448 106.225C103.435 106.225 104.335 105.993 105.126 105.536C105.917 105.079 106.549 104.433 106.999 103.627C107.449 102.814 107.681 101.893 107.681 100.891C107.681 99.8823 107.449 98.9679 106.999 98.1551C106.549 97.3495 105.917 96.7036 105.126 96.2319C104.335 95.7674 103.435 95.5279 102.448 95.5279Z" fill="#373435"/>
<path d="M128.736 94.644C129.716 95.2319 130.478 96.0447 131.022 97.0825C131.567 98.1203 131.842 99.3033 131.842 100.631C131.842 100.856 131.777 101.031 131.639 101.154C131.501 101.285 131.327 101.343 131.102 101.343H120.398C120.448 102.351 120.71 103.244 121.189 104.035C121.668 104.826 122.306 105.443 123.105 105.886C123.903 106.328 124.803 106.553 125.79 106.553C126.458 106.553 127.125 106.437 127.793 106.205C128.468 105.973 128.998 105.675 129.39 105.298C129.556 105.16 129.738 105.095 129.927 105.095C130.115 105.095 130.268 105.145 130.384 105.247C130.572 105.399 130.667 105.581 130.667 105.784C130.667 105.951 130.587 106.118 130.435 106.27C129.89 106.764 129.179 107.17 128.301 107.497C127.423 107.823 126.581 107.983 125.783 107.983C124.433 107.983 123.243 107.678 122.19 107.076C121.145 106.474 120.318 105.624 119.723 104.543C119.128 103.462 118.83 102.242 118.83 100.878C118.83 99.4992 119.106 98.2655 119.657 97.1841C120.209 96.1028 120.986 95.2609 121.98 94.6513C122.974 94.0489 124.113 93.7441 125.391 93.7441C126.646 93.7659 127.757 94.0562 128.736 94.644ZM122.045 96.5237C121.131 97.4091 120.594 98.5775 120.419 100.022H130.362C130.239 98.5703 129.731 97.4091 128.831 96.5237C127.931 95.6383 126.784 95.1956 125.405 95.1956C124.077 95.1956 122.952 95.6383 122.045 96.5237Z" fill="#373435"/>
<path d="M125.788 108.361C124.387 108.361 123.117 108.042 122.014 107.403C120.911 106.772 120.04 105.872 119.409 104.732C118.785 103.6 118.473 102.308 118.473 100.893C118.473 99.4636 118.763 98.1646 119.344 97.0324C119.924 95.893 120.751 94.9931 121.804 94.3545C122.856 93.7158 124.061 93.3965 125.403 93.3965C126.71 93.3965 127.893 93.7086 128.923 94.3327C129.954 94.9496 130.774 95.8204 131.347 96.9163C131.921 98.0049 132.211 99.2604 132.211 100.639C132.211 100.959 132.102 101.234 131.891 101.43C131.688 101.626 131.42 101.721 131.108 101.721H120.795C120.882 102.512 121.122 103.23 121.506 103.869C121.949 104.602 122.544 105.182 123.284 105.589C124.525 106.278 126.115 106.423 127.682 105.879C128.299 105.669 128.793 105.386 129.148 105.052C129.671 104.631 130.266 104.674 130.629 104.986C130.963 105.262 131.035 105.582 131.035 105.799C131.035 106.068 130.919 106.322 130.701 106.54C130.113 107.077 129.359 107.512 128.437 107.853C127.515 108.187 126.623 108.361 125.788 108.361ZM125.403 94.1222C124.199 94.1222 123.117 94.4125 122.181 94.9786C121.245 95.5447 120.512 96.3502 119.989 97.3662C119.467 98.3895 119.198 99.5797 119.198 100.893C119.198 102.185 119.481 103.361 120.047 104.384C120.606 105.4 121.39 106.206 122.377 106.772C123.364 107.338 124.511 107.628 125.788 107.628C126.543 107.628 127.348 107.476 128.183 107.164C129.01 106.859 129.693 106.467 130.201 106.01C130.309 105.901 130.309 105.821 130.309 105.792C130.309 105.727 130.295 105.647 130.164 105.538C130.092 105.48 129.859 105.4 129.627 105.589C129.221 105.981 128.64 106.307 127.922 106.554C126.158 107.156 124.358 106.997 122.936 106.206C122.08 105.734 121.39 105.066 120.882 104.224C120.374 103.383 120.091 102.417 120.04 101.358L120.018 100.98H131.108C131.275 100.98 131.354 100.93 131.398 100.886C131.434 100.85 131.485 100.784 131.485 100.625C131.485 99.362 131.224 98.2226 130.709 97.2429C130.201 96.2704 129.475 95.4939 128.56 94.9423C127.631 94.4053 126.572 94.1222 125.403 94.1222ZM130.752 100.385H120.011L120.062 99.9789C120.243 98.4549 120.824 97.1993 121.789 96.2631C122.769 95.3124 123.981 94.8334 125.403 94.8334C126.877 94.8334 128.11 95.3124 129.083 96.2631C130.048 97.2066 130.6 98.4621 130.723 99.9934L130.752 100.385ZM120.839 99.6596H129.954C129.787 98.4839 129.322 97.5187 128.568 96.7784C127.726 95.9511 126.688 95.5519 125.396 95.5519C124.155 95.5519 123.139 95.9511 122.29 96.7784C121.535 97.5259 121.042 98.4911 120.839 99.6596Z" fill="#373435"/>
<path d="M144.668 94.6725C145.756 95.2967 146.613 96.153 147.237 97.2416C147.861 98.3302 148.173 99.5495 148.173 100.892V107.104C148.173 107.329 148.108 107.511 147.97 107.656C147.832 107.801 147.643 107.874 147.411 107.874C147.186 107.874 147.005 107.801 146.859 107.656C146.714 107.511 146.642 107.329 146.642 107.104V105.109C146.083 106.009 145.306 106.72 144.327 107.242C143.347 107.765 142.251 108.019 141.046 108.019C139.697 108.019 138.485 107.707 137.389 107.09C136.3 106.466 135.444 105.609 134.82 104.521C134.195 103.432 133.891 102.22 133.891 100.892C133.891 99.5495 134.203 98.3302 134.82 97.2416C135.444 96.153 136.3 95.2967 137.389 94.6725C138.477 94.0484 139.697 93.7363 141.046 93.7363C142.367 93.7363 143.579 94.0484 144.668 94.6725ZM143.898 105.849C144.748 105.355 145.415 104.673 145.902 103.802C146.388 102.931 146.627 101.959 146.627 100.892C146.627 99.818 146.388 98.8455 145.902 97.9819C145.415 97.111 144.748 96.4288 143.898 95.9208C143.049 95.42 142.091 95.166 141.039 95.166C139.98 95.166 139.029 95.42 138.18 95.9208C137.331 96.4216 136.656 97.111 136.162 97.9819C135.669 98.8528 135.422 99.8252 135.422 100.892C135.422 101.966 135.669 102.939 136.162 103.802C136.656 104.673 137.331 105.355 138.18 105.849C139.029 106.342 139.987 106.589 141.039 106.589C142.091 106.589 143.049 106.342 143.898 105.849Z" fill="#373435"/>
<path d="M141.04 108.383C139.639 108.383 138.348 108.056 137.208 107.403C136.069 106.75 135.154 105.843 134.501 104.696C133.848 103.556 133.521 102.272 133.521 100.886C133.521 99.4851 133.848 98.1933 134.501 97.0539C135.154 95.9073 136.062 95.0001 137.208 94.3469C138.348 93.6938 139.639 93.3672 141.04 93.3672C142.426 93.3672 143.711 93.6938 144.85 94.3469C145.99 95.0001 146.904 95.9073 147.557 97.0539C148.21 98.1933 148.537 99.4851 148.537 100.886V107.098C148.537 107.417 148.435 107.686 148.232 107.896C147.833 108.325 147.042 108.346 146.599 107.904C146.389 107.693 146.273 107.41 146.273 107.098V106.184C145.779 106.735 145.184 107.192 144.495 107.555C143.464 108.107 142.303 108.383 141.04 108.383ZM141.04 94.1002C139.763 94.1002 138.594 94.3977 137.564 94.9856C136.533 95.5734 135.72 96.3862 135.133 97.4168C134.545 98.4473 134.247 99.6158 134.247 100.893C134.247 102.149 134.545 103.31 135.133 104.34C135.72 105.371 136.541 106.184 137.564 106.772C138.594 107.359 139.763 107.657 141.04 107.657C142.187 107.657 143.232 107.41 144.153 106.917C145.075 106.43 145.801 105.755 146.331 104.914L146.998 103.84V107.098C146.998 107.221 147.035 107.316 147.107 107.388C147.187 107.461 147.274 107.497 147.398 107.497C147.579 107.497 147.652 107.439 147.695 107.396C147.739 107.345 147.797 107.265 147.797 107.098V100.886C147.797 99.6085 147.499 98.4401 146.911 97.4095C146.323 96.379 145.511 95.5662 144.48 94.9783C143.457 94.3977 142.296 94.1002 141.04 94.1002ZM141.04 106.953C139.922 106.953 138.899 106.684 137.999 106.162C137.092 105.639 136.374 104.906 135.851 103.985C135.329 103.063 135.06 102.025 135.06 100.893C135.06 99.7609 135.329 98.7231 135.851 97.8014C136.374 96.8797 137.099 96.1467 137.999 95.6097C138.899 95.0727 139.93 94.8041 141.047 94.8041C142.165 94.8041 143.188 95.0727 144.095 95.6097C145.003 96.1467 145.721 96.8797 146.236 97.8014C146.752 98.7231 147.013 99.7609 147.013 100.893C147.013 102.025 146.752 103.063 146.236 103.985C145.721 104.906 145.003 105.639 144.095 106.169C143.181 106.692 142.158 106.953 141.04 106.953ZM141.04 95.5299C140.053 95.5299 139.153 95.7694 138.362 96.2338C137.571 96.6983 136.932 97.3515 136.475 98.157C136.018 98.9626 135.779 99.8843 135.779 100.893C135.779 101.902 136.011 102.816 136.475 103.629C136.932 104.435 137.571 105.081 138.362 105.538C139.153 105.995 140.053 106.227 141.04 106.227C142.027 106.227 142.927 105.995 143.718 105.538C144.509 105.081 145.14 104.435 145.59 103.629C146.04 102.816 146.273 101.902 146.273 100.893C146.273 99.8843 146.04 98.9699 145.59 98.157C145.14 97.3515 144.509 96.7056 143.718 96.2338C142.927 95.7694 142.027 95.5299 141.04 95.5299Z" fill="#373435"/>
<path d="M161.669 96.0358C161.771 96.1519 161.822 96.2971 161.822 96.4712C161.822 96.7107 161.684 96.9067 161.415 97.0591C161.248 97.1244 161.118 97.1607 161.031 97.1607C160.777 97.1607 160.559 97.0518 160.392 96.8268C159.521 95.7165 158.302 95.1649 156.742 95.1649C155.704 95.1649 154.876 95.3899 154.26 95.8398C153.643 96.2898 153.338 96.8486 153.338 97.5163C153.338 98.1985 153.635 98.7428 154.216 99.1492C154.804 99.5556 155.791 99.8677 157.17 100.071C158.977 100.325 160.276 100.811 161.067 101.515C161.858 102.219 162.257 103.075 162.257 104.084C162.257 104.868 162.003 105.557 161.502 106.153C161.002 106.748 160.334 107.212 159.499 107.531C158.665 107.858 157.75 108.018 156.763 108.018C155.776 108.018 154.811 107.843 153.875 107.495C152.939 107.147 152.162 106.617 151.553 105.899C151.436 105.761 151.371 105.608 151.371 105.441C151.371 105.202 151.48 105.006 151.705 104.853C151.807 104.766 151.952 104.723 152.14 104.723C152.38 104.723 152.576 104.817 152.728 105.006C153.577 106.044 154.949 106.566 156.843 106.566C158.186 106.566 159.18 106.327 159.819 105.848C160.457 105.369 160.777 104.759 160.777 104.004C160.777 102.654 159.47 101.798 156.865 101.421C155.21 101.181 153.962 100.731 153.12 100.064C152.278 99.3959 151.857 98.5976 151.857 97.6614C151.857 96.4204 152.315 95.4479 153.222 94.7585C154.136 94.0691 155.319 93.7207 156.785 93.7207C158.933 93.7352 160.559 94.5045 161.669 96.0358Z" fill="#373435"/>
<path d="M156.757 108.382C155.726 108.382 154.718 108.2 153.745 107.837C152.758 107.467 151.924 106.894 151.27 106.139C151.096 105.943 151.002 105.704 151.002 105.443C151.002 105.087 151.169 104.775 151.488 104.557C151.633 104.434 151.858 104.368 152.127 104.368C152.475 104.368 152.773 104.514 152.998 104.782C153.774 105.726 155.066 106.212 156.83 106.212C158.092 106.212 159.021 105.994 159.587 105.566C160.132 105.16 160.4 104.652 160.4 104.02C160.4 102.888 159.188 102.14 156.801 101.799C155.095 101.553 153.774 101.074 152.882 100.37C151.953 99.6367 151.481 98.7295 151.481 97.6845C151.481 96.3273 151.989 95.2533 152.99 94.4912C153.963 93.7582 155.233 93.3809 156.772 93.3809C159.029 93.3809 160.763 94.2009 161.939 95.8193C162.091 96.0008 162.171 96.2257 162.171 96.4797C162.171 96.741 162.069 97.1039 161.576 97.3869C161.315 97.4958 161.148 97.5393 161.017 97.5393C160.647 97.5393 160.328 97.3724 160.088 97.0676C159.283 96.0443 158.187 95.5508 156.721 95.5508C155.763 95.5508 155.001 95.754 154.456 96.1604C153.934 96.5451 153.687 96.995 153.687 97.5393C153.687 98.0981 153.927 98.5408 154.413 98.8747C154.95 99.252 155.893 99.5423 157.214 99.731C159.079 99.9923 160.458 100.508 161.3 101.262C162.171 102.039 162.606 102.997 162.606 104.1C162.606 104.971 162.323 105.74 161.765 106.401C161.228 107.039 160.502 107.54 159.609 107.888C158.753 108.215 157.788 108.382 156.757 108.382ZM152.134 105.087C152.04 105.087 151.967 105.101 151.931 105.131C151.749 105.254 151.728 105.355 151.728 105.443C151.728 105.522 151.757 105.595 151.815 105.66C152.388 106.328 153.121 106.829 153.992 107.155C155.77 107.823 157.78 107.808 159.355 107.199C160.132 106.901 160.756 106.466 161.213 105.922C161.663 105.385 161.881 104.789 161.881 104.085C161.881 103.178 161.532 102.431 160.814 101.785C160.081 101.132 158.833 100.674 157.105 100.428C155.654 100.21 154.638 99.8907 153.999 99.448C153.31 98.969 152.961 98.3159 152.961 97.5175C152.961 96.7338 153.317 96.0733 154.028 95.5508C154.703 95.0573 155.61 94.8033 156.721 94.8033C158.397 94.8033 159.725 95.4057 160.661 96.6031C160.792 96.7773 160.923 96.7991 161.017 96.7991C161.017 96.7991 161.082 96.7991 161.264 96.7265C161.445 96.6176 161.445 96.516 161.445 96.4725C161.445 96.3636 161.409 96.3128 161.38 96.2765L161.358 96.2548C160.313 94.8106 158.811 94.1066 156.772 94.1066C155.393 94.1066 154.268 94.4332 153.426 95.0646C152.606 95.6887 152.199 96.5451 152.199 97.6772C152.199 98.5045 152.57 99.194 153.324 99.7963C154.115 100.42 155.313 100.849 156.895 101.074C159.696 101.48 161.119 102.467 161.119 104.013C161.119 104.876 160.749 105.595 160.016 106.147C159.304 106.676 158.259 106.938 156.822 106.938C154.827 106.938 153.346 106.372 152.424 105.247C152.359 105.13 152.265 105.087 152.134 105.087Z" fill="#373435"/>
<path d="M177.31 94.5056C177.31 94.5709 177.274 94.6942 177.208 94.8612L168.623 113.469C168.471 113.774 168.275 113.926 168.035 113.926C167.933 113.926 167.817 113.897 167.679 113.846C167.353 113.708 167.193 113.513 167.193 113.259C167.193 113.193 167.229 113.07 167.295 112.903L169.849 107.38C169.835 107.366 169.799 107.3 169.748 107.199L164.152 94.9337C164.087 94.7959 164.051 94.658 164.051 94.5273C164.051 94.2733 164.196 94.0774 164.486 93.9395C164.624 93.8742 164.762 93.8379 164.893 93.8379C165.147 93.8379 165.343 93.983 165.48 94.2733L170.669 105.624L175.88 94.3024C176.033 93.9976 176.229 93.8451 176.468 93.8451C176.584 93.8451 176.708 93.8742 176.824 93.925C177.143 94.0484 177.31 94.2443 177.31 94.5056Z" fill="#373435"/>
<path d="M168.026 114.29C167.881 114.29 167.714 114.254 167.54 114.188C166.945 113.934 166.822 113.543 166.822 113.26C166.822 113.143 166.858 112.991 166.945 112.766L169.427 107.396C169.42 107.381 169.412 107.374 169.412 107.359L163.81 95.0799C163.723 94.9057 163.672 94.7098 163.672 94.5211C163.672 94.238 163.781 93.8534 164.318 93.6066C164.499 93.5196 164.688 93.4688 164.884 93.4688C165.16 93.4688 165.552 93.5776 165.798 94.1074L170.661 104.739L175.545 94.1364C175.821 93.5776 176.198 93.4688 176.459 93.4688C176.626 93.4688 176.793 93.505 176.96 93.5704C177.548 93.8171 177.664 94.209 177.664 94.492C177.664 94.6082 177.628 94.7606 177.533 94.9855L168.941 113.608C168.672 114.174 168.295 114.29 168.026 114.29ZM164.884 94.2017C164.804 94.2017 164.724 94.2235 164.637 94.2671C164.405 94.3759 164.405 94.4775 164.405 94.5283C164.405 94.6082 164.427 94.688 164.47 94.7751L170.073 107.054C170.095 107.098 170.116 107.142 170.131 107.163L170.305 107.345L170.174 107.541L167.62 113.064C167.562 113.216 167.555 113.274 167.555 113.281C167.555 113.31 167.555 113.412 167.816 113.528C167.925 113.572 167.997 113.579 168.034 113.579C168.121 113.579 168.215 113.492 168.295 113.318L176.88 94.7243C176.938 94.5864 176.946 94.5283 176.946 94.5138C176.946 94.4703 176.931 94.3759 176.684 94.2671C176.51 94.1945 176.358 94.1727 176.205 94.4775L170.668 106.503L165.152 94.434C165.036 94.2017 164.942 94.2017 164.884 94.2017Z" fill="#373435"/>
<path d="M37.6336 74.728C17.2259 74.728 0.621094 58.1232 0.621094 37.7156C0.621094 17.3079 17.2259 0.703125 37.6336 0.703125C58.0412 0.703125 74.646 17.3079 74.646 37.7156C74.646 58.1232 58.0339 74.728 37.6336 74.728ZM37.6336 5.79052C20.0272 5.79052 5.70123 20.1165 5.70123 37.7228C5.70123 55.3292 20.0272 69.6552 37.6336 69.6552C55.2399 69.6552 69.5659 55.3292 69.5659 37.7228C69.5659 20.1165 55.2326 5.79052 37.6336 5.79052Z" fill="#373435"/>
<path d="M37.6334 62.7608C27.1466 62.7608 17.6903 56.1421 14.1051 46.2867C13.764 45.3432 14.2503 44.3054 15.1865 43.9643C16.1299 43.6232 17.1677 44.1095 17.5088 45.0457C20.5787 53.4714 28.6634 59.1322 37.6334 59.1322C46.6035 59.1322 54.6882 53.4714 57.7508 45.0457C58.0919 44.1022 59.137 43.616 60.0731 43.9643C61.0166 44.3054 61.5028 45.3505 61.1545 46.2867C57.5694 56.1349 48.113 62.7608 37.6334 62.7608Z" fill="#2196F3"/>
<path d="M103.228 74.6554C90.6656 74.6554 80.4473 64.437 80.4473 51.8746C80.4473 39.3121 90.6656 29.0938 103.228 29.0938C115.791 29.0938 126.009 39.3121 126.009 51.8746C126.009 64.437 115.783 74.6554 103.228 74.6554ZM103.228 34.1739C93.4669 34.1739 85.5274 42.1134 85.5274 51.8746C85.5274 61.6357 93.4669 69.5752 103.228 69.5752C112.989 69.5752 120.929 61.6357 120.929 51.8746C120.929 42.1134 112.982 34.1739 103.228 34.1739Z" fill="#373435"/>
<path d="M123.468 54.4153C122.067 54.4153 120.928 53.2759 120.928 51.8752V3.25101C120.928 1.85034 122.067 0.710938 123.468 0.710938C124.868 0.710938 126.008 1.85034 126.008 3.25101V51.8752C126.008 53.2831 124.868 54.4153 123.468 54.4153Z" fill="#373435"/>
<path d="M154.96 74.6554C142.398 74.6554 132.18 64.437 132.18 51.8746C132.18 39.3121 142.398 29.0938 154.96 29.0938C167.523 29.0938 177.741 39.3121 177.741 51.8746C177.741 64.437 167.523 74.6554 154.96 74.6554ZM154.96 34.1739C145.199 34.1739 137.26 42.1134 137.26 51.8746C137.26 61.6357 145.199 69.5752 154.96 69.5752C164.722 69.5752 172.661 61.6357 172.661 51.8746C172.661 42.1134 164.722 34.1739 154.96 34.1739Z" fill="#373435"/>
<path d="M175.202 74.6549C173.802 74.6549 172.662 73.5155 172.662 72.1148V50.3428C172.662 48.9421 173.802 47.8027 175.202 47.8027C176.603 47.8027 177.742 48.9421 177.742 50.3428V72.1148C177.742 73.5228 176.61 74.6549 175.202 74.6549Z" fill="#373435"/>
</g>
<defs>
<clipPath id="clip0_6640_2833">
<rect width="177.486" height="113.577" fill="white" transform="translate(0.257812 0.710938)"/>
</clipPath>
</defs>
</svg>
